<svg xmlns="http://www.w3.org/2000/svg" width="250" height="251" fill="none" viewBox="0 0 250 251">
    <path fill="#fff" d="M154.353 68.116h-25.194c-.487 0-.812-.325-.812-.813v-9.102c0-2.925 2.275-5.201 5.201-5.201h16.579c2.925 0 5.201 2.276 5.201 5.201v9.102c-.163.488-.488.813-.975.813zm-24.381-1.625h23.568V58.2c0-1.95-1.625-3.576-3.576-3.576h-16.416c-1.951 0-3.576 1.626-3.576 3.576v8.29zM141.838 177.666h-11.866c-4.551 0-8.289-3.413-8.777-7.964l-5.201-56.238c0-.488.325-.813.813-.813.487 0 .813.325.813.813l5.201 56.238c.325 3.738 3.413 6.501 7.151 6.501h11.866c.487 0 .812.325.812.813 0 .487-.487.65-.812.65z"/>
    <path fill="#fff" d="M168.006 111.026c-.488 0-.813-.488-.813-.813l2.113-23.893-14.953-18.204h-24.381l-15.766 18.041 1.788 16.904c0 .488-.325.813-.65.813-.488 0-.813-.325-.813-.65l-1.788-17.23c0-.162 0-.487.163-.65l16.253-18.528c.163-.163.325-.326.651-.326h25.193c.162 0 .487.163.65.326l15.441 18.529c.162.162.162.325.162.65l-2.113 24.218c-.325.488-.65.813-1.137.813zM164.43 150.847c-.488 0-.813-.487-.813-.812l2.601-29.42c0-.487.487-.812.812-.812.488 0 .813.487.813.812l-2.6 29.42c0 .487-.326.812-.813.812z"/>
    <path fill="#fff" d="M170.281 86.808h-56.888c-.487 0-.812-.325-.812-.813 0-.488.325-.813.812-.813h56.888c.488 0 .813.325.813.813 0 .488-.325.813-.813.813zM96.977 125.491c-.163 0-.325-.162-.488-.325L77.798 94.772c-.163-.325-.163-.65.162-.813.325-.162.65-.162.813.163l18.692 30.394c.162.325.162.65-.163.813-.162.162-.162.162-.325.162z"/>
    <path fill="#fff" d="M91.939 120.29c-1.463 0-3.088-.812-3.901-2.438-1.3-2.113-.65-4.876 1.3-6.014.975-.487 2.113-.65 3.25-.162 1.139.325 1.951 1.138 2.601 2.275 1.3 2.113.65 4.876-1.3 6.014-.813.163-1.3.325-1.95.325zm-2.926-2.925c.975 1.625 2.763 2.275 4.063 1.462 1.3-.812 1.788-2.763.813-4.226-.487-.812-1.138-1.3-1.95-1.625-.813-.325-1.463-.162-2.113.163-1.3.65-1.626 2.6-.813 4.226zM92.751 108.588c-9.914 0-32.67-.325-32.67-3.576 0-3.088 22.756-3.576 32.67-3.576 9.915 0 32.67.325 32.67 3.576s-22.917 3.576-32.67 3.576zm-30.394-3.576c3.088.813 13.978 1.95 30.394 1.95 16.417 0 27.144-.975 30.395-1.95-3.088-.813-13.978-1.951-30.395-1.951-16.416 0-27.306 1.138-30.394 1.951z"/>
    <path fill="#fff" d="M70.646 116.227c-.162 0-.487-.163-.65-.325l-9.752-10.24c-.325-.325-.325-.813 0-1.138.325-.325.813-.325 1.138 0l9.752 10.24c.325.325.325.813 0 1.138-.163.162-.325.325-.488.325zM92.751 139.795c-.162 0-.487-.163-.65-.325l-18.53-19.83c-.324-.325-.324-.812 0-1.138.326-.325.814-.325 1.139 0l18.041 19.18 31.207-33.32c.325-.325.813-.325 1.138 0 .325.325.325.812 0 1.137L93.401 139.47c-.162.162-.487.325-.65.325zM92.751 193.432c-3.088 0-18.529-.163-18.529-3.739 0-.325.163-.487.325-.65l17.717-11.052c.325-.163.65-.163.813 0l17.716 11.052c.163.163.325.488.325.65.163 3.576-15.278 3.739-18.367 3.739zm-16.578-3.413c1.625.812 7.639 1.787 16.578 1.787 8.777 0 14.791-.975 16.579-1.787l-16.579-10.24-16.578 10.24z"/>
    <path fill="#fff" d="M92.751 179.454c-.487 0-.813-.325-.813-.813v-39.659c0-.487.326-.813.813-.813.488 0 .813.326.813.813v39.659c0 .488-.325.813-.813.813zM103.316 117.852c-1.462 0-2.6-1.137-2.6-2.6s1.138-2.601 2.6-2.601c1.463 0 2.601 1.138 2.601 2.601s-1.3 2.6-2.601 2.6zm0-3.738c-.65 0-1.3.65-1.3 1.3s.65 1.301 1.3 1.301c.651 0 1.301-.651 1.301-1.301 0-.65-.65-1.3-1.301-1.3zM81.049 119.478c-1.463 0-2.6-1.138-2.6-2.601s1.137-2.601 2.6-2.601 2.6 1.138 2.6 2.601-1.3 2.601-2.6 2.601zm0-3.901c-.65 0-1.3.65-1.3 1.3s.65 1.3 1.3 1.3 1.3-.65 1.3-1.3-.65-1.3-1.3-1.3zM88.363 189.369c-2.6 0-4.388-.651-4.55-.651-.326-.162-.488-.487-.326-.812.163-.325.488-.488.813-.325 0 0 2.275.812 5.201.65.325 0 .65.162.65.487 0 .325-.162.651-.487.651h-1.3zM165.243 197.82c-13.328 0-24.218-10.89-24.218-24.218s10.89-24.218 24.218-24.218 24.218 10.89 24.218 24.218-10.89 24.218-24.218 24.218zm0-46.973c-12.515 0-22.593 10.077-22.593 22.593 0 12.515 10.078 22.755 22.593 22.755s22.593-10.077 22.593-22.593c0-12.515-10.078-22.755-22.593-22.755z"/>
    <path fill="#fff" d="M174.182 174.252h-8.939c-.488 0-.813-.325-.813-.812v-18.204c0-.488.325-.813.813-.813.487 0 .813.325.813.813v17.554h8.126c.488 0 .813.325.813.812 0 .488-.488.65-.813.65z"/>
</svg>
