<svg xmlns="http://www.w3.org/2000/svg" width="728" height="461" fill="none" viewBox="0 0 728 461">
    <path stroke="#fff" stroke-miterlimit="10" d="M411.188 304.104h-19.027v-5.128c0-2.849 2.283-5.129 5.137-5.129h8.753c2.854 0 5.137 2.28 5.137 5.129v5.128zM411.379 304.104h-19.028l-12.178 14.056 6.47 63.062c.38 3.039 2.854 5.319 6.089 5.319h18.647c3.044 0 5.708-2.47 6.089-5.509l5.708-62.872-11.797-14.056zM380.173 317.971h42.813"/>
    <path stroke="#fff" stroke-linecap="round" stroke-linejoin="round" stroke-miterlimit="10" d="M366.854 38.749s-.381 18.425 0 25.453c0 0-5.138-3.23-8.372-1.33-5.518 3.04 1.331 16.906 4.376 19.945 5.137 5.128 7.992 4.368 7.992 4.368s6.469 27.163 32.156 27.163M436.685 38.749s.381 18.425 0 25.453c0 0 5.138-3.23 8.373-1.33 5.518 3.04-1.332 16.906-4.377 19.945-5.137 5.128-7.991 4.368-7.991 4.368s-5.518 27.353-29.684 27.163M368.757 32.86c1.332-10.256 8.943-18.804 18.266-23.363 9.324-4.558 19.979-5.318 30.254-4.558 2.474.19 5.138.38 7.612 0 2.473-.38 4.947-1.71 6.279-3.99M391.971 30.961c.38-7.028 7.611-11.966 14.461-13.296 6.85-1.33 14.08.19 21.12 0 3.616-.19 7.421-.76 10.656-2.66 3.235-1.899 5.708-5.128 5.899-8.927M420.702 31.72c2.664-2.279 6.47-2.848 9.895-3.038 3.615-.19 7.23-.19 10.465-1.14 5.898-1.9 10.275-7.598 10.465-13.676M401.294 60.783v24.693c0 .19 0 .57.19.76.381.95 1.903.95 3.045.57M378.841 58.313c.952-1.52 2.854-2.659 5.138-2.849 2.283-.19 4.376.57 5.898 1.71M426.22 58.313c-.951-1.52-2.854-2.659-5.137-2.849-2.284-.19-4.377.57-5.899 1.71M420.702 64.202v7.788M385.311 64.202v7.788M379.603 104.281c1.712 7.598 1.522 15.765-.381 23.363"/>
    <path stroke="#fff" stroke-linecap="round" stroke-linejoin="round" stroke-miterlimit="10" d="M427.362 100.102v14.436c0 4.179.571 8.358 2.854 11.777M372.562 127.074l24.736 14.816s-8.372 6.078-7.991 15.766l-27.781-20.895 11.036-9.687zM430.407 126.314l-20.74 15.386s6.849 3.229 6.469 12.916l26.258-18.044-11.987-10.258z"/>
    <path stroke="#fff" stroke-linecap="round" stroke-linejoin="round" stroke-miterlimit="10" d="M336.79 363.367l-10.275-113.018v-99.532l35.011-14.056s-1.142 49.766 4.376 61.543c5.328 11.967 25.307 36.09 25.307 36.09l8.373-74.649-6.66-13.486 4.376-4.559h12.368l4.377 4.179-6.28 14.246 4.187 72.369s25.306-18.615 27.209-32.671c1.903-14.056 3.235-63.252 3.235-63.252l34.25 16.336v90.604c0 1.33 0 2.469-.191 3.799l-12.938 116.057"/>
    <path stroke="#fff" stroke-linecap="round" stroke-linejoin="round" stroke-miterlimit="10" d="M476.644 153.097c13.509 6.458 28.161 19.374 35.962 32.101 7.801 12.726 13.319 26.782 19.218 40.458 15.412 35.9 34.059 70.28 55.561 102.951l5.328 7.598s-1.332 16.145-18.838 17.855l-12.368-14.816c-32.728-26.402-67.929-65.911-84.673-104.28"/>
    <path stroke="#fff" stroke-linecap="round" stroke-linejoin="round" stroke-miterlimit="10" d="M581.486 351.971c3.045 3.989 10.466 7.408 15.032 9.307 9.704 4.369 22.453 7.028 21.502 3.799-.381-1.14-9.514-5.888-12.749-8.358M618.21 362.798h34.44c-2.283-5.508-20.169-8.928-24.736-10.067-9.894-2.47-32.728-15.386-35.201-15.006M396.347 98.012s5.138 2.659 13.129 0M583.199 323.668c-2.854 8.168-13.319 14.246-21.882 15.576M326.515 151.767c-13.509 6.458-23.213 16.525-31.015 29.252-29.112 47.486-48.901 99.532-79.726 146.259l-5.328 7.597s1.332 16.146 18.838 17.855l12.368-14.815c32.727-26.403 67.929-65.912 84.673-104.281"/>
    <path stroke="#fff" stroke-linecap="round" stroke-linejoin="round" stroke-miterlimit="10" d="M221.863 350.641c-3.045 3.989-10.465 7.408-15.032 9.307-9.704 4.369-22.453 7.028-21.501 3.799.38-1.139 9.513-5.888 12.748-8.357M184.949 362.798h-34.44c2.283-5.509 20.169-8.928 24.736-10.067 9.894-2.47 33.869-14.056 36.343-13.676M219.96 322.339c2.854 8.168 13.319 14.246 21.882 15.576M150.509 362.798H.951M704.596 362.798h-74.208M418.99 363.748h181.905M198.078 363.748H384.93M634.383 406.295c13.662 0 24.737-1.02 24.737-2.279s-11.075-2.28-24.737-2.28c-13.661 0-24.736 1.021-24.736 2.28s11.075 2.279 24.736 2.279zM652.65 456.821c0 1.329-8.182 2.279-18.267 2.279-10.084 0-18.266-1.14-18.266-2.279"/>
    <path stroke="#fff" stroke-linecap="round" stroke-linejoin="round" stroke-miterlimit="10" d="M609.647 404.016s-7.42 14.056-3.995 33.241c1.332 7.218 3.234 16.145 10.465 19.754M659.119 404.016s7.421 14.056 3.996 33.241c-1.332 7.218-3.235 16.145-10.465 19.754M634.383 418.642c11.455 0 20.74-1.276 20.74-2.849 0-1.574-9.285-2.85-20.74-2.85-11.454 0-20.74 1.276-20.74 2.85 0 1.573 9.286 2.849 20.74 2.849zM631.552 428.455l-16.822 5.482 5.491 16.792 16.822-5.482-5.491-16.792zM617.258 388.82c5.138 17.095 18.267 31.721 34.821 38.749"/>
    <path stroke="#fff" stroke-linecap="round" stroke-linejoin="round" stroke-miterlimit="10" d="M649.606 422.251l-.571 3.799-4.186 1.519M645.8 420.542l-.571 3.798-4.186 1.52M642.185 418.262l-.571 3.799-4.186 1.52M638.95 415.982l-.761 3.609-4.186 1.33M636.476 413.703l-.57 3.799-4.377 1.14M633.432 410.854l-.761 3.799-4.186 1.14M631.149 408.005l-1.142 3.609-3.996.19M628.485 404.776l-1.142 3.799-4.186.19M626.392 401.547l-1.332 3.609h-4.186M623.919 397.558l-1.332 3.609H618.4M622.015 393.569l-1.712 3.419-3.996-.38M620.303 389.2l-1.903 3.229-3.996-.57M645.61 442.195c1.156 0 2.093-.935 2.093-2.089s-.937-2.089-2.093-2.089-2.093.935-2.093 2.089.937 2.089 2.093 2.089zM656.075 440.106c1.156 0 2.093-.936 2.093-2.09s-.937-2.089-2.093-2.089-2.093.935-2.093 2.089.937 2.09 2.093 2.09zM242.603 397.178c0 1.71-10.465 3.229-23.404 3.229s-23.404-1.519-23.404-3.229c0-1.709 10.465-3.229 23.404-3.229 3.806 0 7.231.19 10.465.38M219.199 408.765c11.034 0 19.979-1.191 19.979-2.659 0-1.469-8.945-2.66-19.979-2.66-11.034 0-19.979 1.191-19.979 2.66 0 1.468 8.945 2.659 19.979 2.659zM242.603 444.854c0 2.09-10.465 3.799-23.404 3.799s-23.404-1.709-23.404-3.799M242.603 456.062c0 2.089-10.465 3.798-23.404 3.798s-23.404-1.709-23.404-3.798M195.795 397.178v58.884M242.603 456.062v-58.884M231.55 417.186l-16.098 5.246 5.254 16.07 16.099-5.245-5.255-16.071z"/>
    <path stroke="#fff" stroke-linecap="round" stroke-linejoin="round" stroke-miterlimit="10" d="M210.407 396.028l-7.39 15.212 15.237 7.377 7.391-15.211-15.238-7.378zM229.664 400.027c-.19-1.139-.38-2.089-.38-3.229 0-7.408 5.898-13.296 13.319-13.296 7.421 0 13.319 5.888 13.319 13.296 0 7.408-5.898 13.296-13.319 13.296"/>
    <path stroke="#fff" stroke-linecap="round" stroke-linejoin="round" stroke-miterlimit="10" d="M232.328 399.837c-.38-.949-.38-1.899-.38-3.039 0-5.888 4.757-10.637 10.655-10.637 5.899 0 10.656 4.749 10.656 10.637 0 5.888-4.757 10.637-10.656 10.637M242.603 385.971v21.464M234.992 389.2l15.222 15.006M231.948 396.608h21.311M242.603 396.608l7.611-7.408M208.544 434.027c1.156 0 2.093-.935 2.093-2.089s-.937-2.089-2.093-2.089-2.093.935-2.093 2.089.937 2.089 2.093 2.089zM205.309 420.352c1.156 0 2.093-.936 2.093-2.09s-.937-2.089-2.093-2.089-2.093.935-2.093 2.089.937 2.09 2.093 2.09zM469.984 394.329c14.292 0 25.878-1.446 25.878-3.229 0-1.784-11.586-3.229-25.878-3.229s-25.878 1.445-25.878 3.229c0 1.783 11.586 3.229 25.878 3.229zM470.175 409.145c10.929 0 19.788-1.191 19.788-2.66 0-1.468-8.859-2.659-19.788-2.659s-19.789 1.191-19.789 2.659c0 1.469 8.86 2.66 19.789 2.66zM489.773 445.614c0 1.52-8.943 2.66-19.789 2.66-11.036 0-19.789-1.14-19.789-2.66M444.297 391.1l5.899 54.515M495.862 391.1l-6.089 54.515M462.753 432.319c0-3.42 3.235-6.079 7.231-6.079s7.23 2.659 7.23 6.079"/>
    <path stroke="#fff" stroke-linecap="round" stroke-linejoin="round" stroke-miterlimit="10" d="M448.673 432.319c0-3.419 2.093-6.079 6.089-6.079 3.996 0 7.991 2.66 7.991 6.079v15.765M491.485 432.319c0-3.419-2.093-6.079-6.089-6.079-3.805 0-7.991 2.66-7.991 6.079v15.765M481.781 420.162c1.156 0 2.093-.936 2.093-2.09s-.937-2.089-2.093-2.089-2.093.935-2.093 2.089.937 2.09 2.093 2.09zM455.713 420.542c1.156 0 2.093-.936 2.093-2.09s-.937-2.089-2.093-2.089-2.093.935-2.093 2.089.937 2.09 2.093 2.09zM473.599 423.961l-27.59-44.638M468.311 415.996c2.467-1.399 3.164-4.825 1.555-7.653-1.608-2.828-4.912-3.987-7.379-2.588-2.468 1.398-3.164 4.824-1.556 7.652 1.609 2.828 4.913 3.987 7.38 2.589z"/>
    <path fill="#000" d="M555.989 394.708c10.275-6.838 17.125-18.614 17.125-31.911 0-13.676-7.04-25.642-17.886-32.291-5.137-3.229-8.562-8.927-8.943-15.005l-2.664-39.889h-1.141v-14.246c0-3.799-3.045-6.838-6.85-6.838h-1.903c-3.806 0-6.85 3.039-6.85 6.838v14.246h-1.142l-2.664 39.889c-.38 6.078-3.615 11.776-8.943 15.005-10.655 6.838-17.886 18.805-17.886 32.291 0 13.297 6.85 25.073 17.125 31.911 1.142.76.571 2.66-.761 2.66-1.142 0-2.093.949-2.093 2.089v.19c0 .76.571 1.33 1.332 1.33h45.857c.761 0 1.332-.57 1.332-1.33v-.19c0-1.14-.952-2.089-2.093-2.089h-.191c-1.332-.19-1.902-1.9-.761-2.66z"/>
    <path stroke="#fff" stroke-linecap="round" stroke-linejoin="round" stroke-miterlimit="10" d="M573.114 362.798c0-13.676-7.04-25.643-17.886-32.291-5.137-3.229-8.562-8.928-8.943-15.006l-2.664-39.889h-17.886l-2.664 39.889c-.38 6.078-3.615 11.777-8.943 15.006-10.655 6.838-17.886 18.805-17.886 32.291 0 13.296 6.85 25.073 17.125 31.911 1.142.76.571 2.659-.761 2.659-1.142 0-2.093.95-2.093 2.089v.19c0 .76.571 1.33 1.332 1.33h45.857c.761 0 1.332-.57 1.332-1.33v-.19c0-1.139-.952-2.089-2.093-2.089h-.191c-1.522 0-1.902-1.899-.761-2.659 10.275-7.028 17.125-18.615 17.125-31.911zM542.48 275.422h-15.603v-15.956c0-2.849 2.283-5.128 5.137-5.128h5.328c2.854 0 5.138 2.279 5.138 5.128v15.956z"/>
    <path stroke="#fff" stroke-linecap="round" stroke-linejoin="round" stroke-miterlimit="10" d="M534.678 383.502c9.773 0 17.696-10.12 17.696-22.604s-7.923-22.604-17.696-22.604c-9.773 0-17.696 10.12-17.696 22.604s7.923 22.604 17.696 22.604zM525.925 354.25h17.506M525.925 365.836h17.506M523.833 302.964h21.691M542.48 262.886h-15.603"/>
    <path fill="#000" d="M163.448 296.316c-6.659-3.229-13.89-7.218-14.841-13.676h-.191c1.713 0 3.235-1.519 3.235-3.229v-.95c0-1.709-1.522-3.229-3.235-3.229h.571v-7.788c0-3.039-2.473-5.318-5.328-5.318h-9.513c-3.045 0-5.328 2.469-5.328 5.318v7.788h.571c-1.713 0-3.235 1.52-3.235 3.229v.95c0 1.71 1.522 3.229 3.235 3.229h-.381c-.951 6.458-8.182 10.447-14.842 13.676-3.044 1.52-4.947 4.559-4.947 7.978v79.968c0 4.938 3.996 8.927 8.943 8.927H159.643c4.947 0 8.943-3.989 8.943-8.927v-79.968c-.191-3.419-2.093-6.458-5.138-7.978z"/>
    <path stroke="#fff" stroke-linecap="round" stroke-linejoin="round" stroke-miterlimit="10" d="M148.987 282.64h-20.55c-1.332 0-2.474-1.139-2.474-2.469v-2.469c0-1.33 1.142-2.47 2.474-2.47h20.55c1.332 0 2.474 1.14 2.474 2.47v2.469c0 1.33-1.142 2.469-2.474 2.469zM148.606 282.64c.952 6.458 8.182 10.447 14.842 13.676 3.044 1.52 4.947 4.559 4.947 7.978v79.967c0 4.939-3.996 8.928-8.943 8.928h-41.48c-4.947 0-8.943-3.989-8.943-8.928v-79.967c0-3.419 1.903-6.458 4.947-7.978 6.66-3.229 13.89-7.218 14.842-13.676M129.198 282.64h19.218"/>
    <path stroke="#fff" stroke-linecap="round" stroke-linejoin="round" stroke-miterlimit="10" d="M148.987 275.422h-20.36v-8.737c0-2.28 1.903-4.179 4.187-4.179h11.797c2.283 0 4.186 1.899 4.186 4.179v8.737h.19zM128.627 268.774h20.36M138.712 305.434c-9.514 0-17.125 2.659-17.125 5.888v63.632h34.25v-63.632c0-3.229-7.611-5.888-17.125-5.888z"/>
    <path stroke="#fff" stroke-linecap="round" stroke-linejoin="round" stroke-miterlimit="10" d="M138.712 338.484c5.464 0 9.894-4.422 9.894-9.877 0-5.455-4.43-9.877-9.894-9.877-5.465 0-9.895 4.422-9.895 9.877 0 5.455 4.43 9.877 9.895 9.877zM121.587 347.032h34.25"/>
    <path fill="#000" d="M51.565 344.943c-7.04-5.129-11.036-13.486-11.036-22.224v-17.475h2.664v-6.648c0-3.229-2.474-5.699-5.709-5.699H27.02c-3.234 0-5.708 2.47-5.708 5.699v6.648h3.235v17.095c0 8.928-4.186 17.095-11.417 22.414-7.23 5.318-11.987 13.676-11.987 22.983 0 1.33.19 2.66.19 3.799l11.987 54.135h37.485l12.178-54.135c.19-1.329.19-2.469.19-3.799 0-9.307-4.567-17.475-11.607-22.793z"/>
    <path stroke="#fff" stroke-linecap="round" stroke-linejoin="round" stroke-miterlimit="10" d="M43.002 305.244H21.121v-8.168c0-2.279 1.902-4.179 4.186-4.179h13.32c2.282 0 4.185 1.9 4.185 4.179v8.168h.19zM63.172 367.737c0-9.308-4.567-17.476-11.797-22.794-7.04-5.129-11.036-13.486-11.036-22.224v-17.475H24.355v17.095c0 8.928-4.186 17.096-11.416 22.414C5.709 350.072.95 358.429.95 367.737c0 1.329.19 2.659.19 3.798L13.32 425.67h37.485l12.177-54.135c.19-1.329.19-2.469.19-3.798zM24.926 314.172h15.222M24.926 325.378h15.222"/>
    <path stroke="#fff" stroke-linecap="round" stroke-linejoin="round" stroke-miterlimit="10" d="M45.286 367.546c0-7.218-5.899-13.106-13.13-13.106-7.23 0-13.129 5.888-13.129 13.106h-6.089l5.709 38.369h27.02l5.707-38.369h-6.088z"/>
    <path fill="#000" d="M724.765 408.195c-1.522 0-2.664-1.14-2.473-2.659l4.376-65.722c.19-4.179-.951-8.358-3.425-11.587l-2.283-3.229c-1.713-2.469-2.854-5.318-3.235-8.167L714.3 283.97c-.19-1.14-1.142-2.09-2.474-2.09v-14.246c0-3.419-2.854-6.268-6.279-6.268h-1.903c-3.425 0-6.279 2.849-6.279 6.268v14.246c-1.141 0-2.283.95-2.473 2.09l-3.425 32.861c-.381 3.039-1.332 5.888-3.235 8.167l-2.283 3.229c-2.474 3.419-3.806 7.598-3.425 11.587l4.376 65.722c.19 1.519-.951 2.659-2.474 2.659-1.332 0-2.283 1.139-2.283 2.279v1.52c0 1.329 1.142 2.279 2.283 2.279h40.149c1.332 0 2.283-1.14 2.283-2.279v-1.52c.191-1.329-.951-2.279-2.093-2.279z"/>
    <path stroke="#fff" stroke-linecap="round" stroke-linejoin="round" stroke-miterlimit="10" d="M711.826 281.69h-14.27v-16.145c0-2.279 1.902-4.179 4.186-4.179h5.898c2.284 0 4.186 1.9 4.186 4.179v16.145zM724.765 408.195c-1.522 0-2.664-1.14-2.473-2.659l4.376-65.722c.19-4.179-.951-8.358-3.425-11.587l-2.283-3.229c-1.713-2.469-2.854-5.318-3.235-8.167L714.3 283.97c-.19-1.14-1.142-2.09-2.474-2.09h-14.461c-1.141 0-2.283.95-2.473 2.09l-3.425 32.861c-.381 3.039-1.332 5.888-3.235 8.167l-2.283 3.229c-2.474 3.419-3.806 7.598-3.425 11.587l4.376 65.722c.19 1.519-.951 2.659-2.474 2.659-1.332 0-2.283 1.139-2.283 2.279v1.52c0 1.329 1.142 2.279 2.283 2.279h40.149c1.332 0 2.283-1.14 2.283-2.279v-1.52c.191-1.329-.951-2.279-2.093-2.279zM697.365 271.623h14.461"/>
    <path stroke="#fff" stroke-linecap="round" stroke-linejoin="round" stroke-miterlimit="10" d="M704.596 330.697c-5.328 0-9.514 2.279-9.514 5.318v57.174h19.028v-57.174c0-3.039-4.186-5.318-9.514-5.318zM291.314 329.747l-18.267-29.632M287.855 324.292c1.645-.932 2.137-3.167 1.099-4.991-1.037-1.825-3.212-2.548-4.857-1.616-1.645.932-2.137 3.167-1.1 4.992 1.038 1.824 3.213 2.547 4.858 1.615zM287.128 313.031c17.234 0 31.205-1.19 31.205-2.659 0-1.469-13.971-2.659-31.205-2.659-17.235 0-31.206 1.19-31.206 2.659 0 1.469 13.971 2.659 31.206 2.659zM265.436 320.439l-9.514-10.067"/>
    <path stroke="#fff" stroke-linecap="round" stroke-linejoin="round" stroke-miterlimit="10" d="M318.333 310.372l-31.205 33.051-18.267-19.375M287.128 382.362l-17.506 10.827c0 1.519 7.801 2.849 17.506 2.849 9.704 0 17.505-1.33 17.505-2.849l-17.505-10.827zM287.128 343.423v38.939"/>
    <path stroke="#fff" stroke-linecap="round" stroke-linejoin="round" stroke-miterlimit="10" d="M297.593 322.339c1.051 0 1.902-.85 1.902-1.899 0-1.05-.851-1.9-1.902-1.9s-1.903.85-1.903 1.9c0 1.049.852 1.899 1.903 1.899zM275.711 323.858c1.051 0 1.903-.85 1.903-1.899s-.852-1.899-1.903-1.899c-1.051 0-1.903.85-1.903 1.899s.852 1.899 1.903 1.899zM278.565 391.669s2.284.95 5.518.57"/>
</svg>
