<svg xmlns="http://www.w3.org/2000/svg" width="720" height="500" fill="none" viewBox="0 0 720 500">
    <path stroke="#9FA0A0" stroke-linecap="round" stroke-linejoin="round" stroke-miterlimit="10" d="M176.216 334.637c0-19.399-10.079-36.392-25.423-46.016-7.372-4.662-12.035-12.632-12.637-21.504l-3.761-56.693h-25.574l-3.761 56.693c-.602 8.722-5.265 16.692-12.636 21.504C77.23 298.245 67 315.238 67 334.637c0 18.948 9.628 35.64 24.22 45.415 1.655 1.203.903 3.759-1.053 3.759-1.655 0-3.009 1.353-3.009 3.008v.3c0 1.053.903 1.955 1.956 1.955h65.139c1.053 0 1.955-.902 1.955-1.955v-.3c0-1.655-1.354-3.008-3.008-3.008h-.301c-2.106 0-2.708-2.556-1.053-3.759 14.592-9.775 24.37-26.467 24.37-45.415z"/>
    <path stroke="#9FA0A0" stroke-linecap="round" stroke-linejoin="round" stroke-miterlimit="10" d="M132.59 210.424h-22.114v-26.015c0-2.256 1.805-4.061 4.062-4.061h13.99c2.257 0 4.062 1.805 4.062 4.061v26.015zM121.608 364.111c13.875 0 25.123-14.408 25.123-32.181 0-17.773-11.248-32.181-25.123-32.181-13.875 0-25.123 14.408-25.123 32.181 0 17.773 11.248 32.181 25.123 32.181zM109.272 322.607h24.672M109.272 338.998h24.672M106.264 249.523h30.689M132.59 192.529h-22.114M226.913 220.65H208.71v-22.557c0-1.804 1.505-3.308 3.31-3.308h11.584c1.805 0 3.309 1.504 3.309 3.308v22.557zM243.311 381.405c-1.806 0-3.31-1.504-3.16-3.308l5.567-83.611c.3-5.263-1.204-10.526-4.363-14.887l-3.009-4.061c-2.256-3.007-3.61-6.616-4.062-10.376l-4.212-41.655c-.15-1.504-1.504-2.707-3.008-2.707H208.56c-1.504 0-2.858 1.203-3.009 2.707l-4.212 41.655c-.451 3.76-1.805 7.369-4.062 10.376l-3.008 4.061c-3.16 4.21-4.664 9.473-4.363 14.887l5.566 83.611c.15 1.804-1.354 3.308-3.159 3.308-1.655 0-3.009 1.354-3.009 3.008v1.955c0 1.654 1.354 3.007 3.009 3.007h51.148c1.655 0 3.009-1.353 3.009-3.007v-1.955c-.151-1.654-1.505-3.008-3.159-3.008zM208.71 207.717h18.203"/>
    <path stroke="#9FA0A0" stroke-linecap="round" stroke-linejoin="round" stroke-miterlimit="10" d="M217.737 282.907c-6.77 0-12.186 3.007-12.186 6.767v72.783h24.22v-72.783c.151-3.76-5.265-6.767-12.034-6.767zM574.269 245.011c-2.708-3.91-4.362-8.722-4.663-13.534l-3.761-55.49h-24.973l-3.76 55.49c-.602 8.571-5.115 16.391-12.336 20.903-5.566 3.609-10.531 8.12-14.442 13.383M527.784 350.577h37.158M564.19 175.837h-21.512v-25.264c0-2.256 1.805-4.06 4.061-4.06h13.54c2.256 0 4.061 1.804 4.061 4.06v25.264h-.15zM564.942 322.306c-3.46 2.406-7.371 3.759-11.584 3.759-7.07 0-13.388-3.759-17.901-9.925M529.59 286.816c2.708-13.534 12.336-23.609 23.769-23.609 4.212 0 8.123 1.353 11.583 3.759M541.324 285.613h22.866M541.324 301.554h22.866M538.315 214.033h30.087M564.19 158.543h-21.663M480.698 182.303h-18.202v-22.557c0-1.804 1.504-3.308 3.309-3.308h11.433c1.806 0 3.31 1.504 3.31 3.308v22.557h.15zM485.813 204.409l-1.956-19.248c-.15-1.504-1.504-2.707-3.008-2.707h-18.354c-1.504 0-2.858 1.203-3.008 2.707l-4.212 41.655c-.452 3.759-1.806 7.368-4.062 10.376l-3.009 4.06c-3.159 4.211-4.663 9.474-4.363 14.887l4.814 71.731M462.496 169.371h18.202"/>
    <path stroke="#9FA0A0" stroke-linecap="round" stroke-linejoin="round" stroke-miterlimit="10" d="M481.901 247.718c-2.106-1.955-6.017-3.308-10.38-3.308-6.769 0-12.185 3.007-12.185 6.616v31.881M625.417 225.612h-33.396c-1.204 0-2.106-.902-2.106-2.105v-6.467c0-1.203.902-2.105 2.106-2.105h33.396c1.204 0 2.106.902 2.106 2.105v6.467c0 1.203-.902 2.105-2.106 2.105zM623.311 225.612c1.505 9.474 12.186 15.489 21.964 20.301 4.513 2.106 7.221 6.767 7.221 11.73v118.348c0 7.218-5.867 13.233-13.238 13.233h-61.077c-7.221 0-13.239-5.864-13.239-13.233V257.643c0-4.963 2.708-9.624 7.221-11.73 9.779-4.812 20.46-10.827 21.964-20.301M594.578 225.612h28.282M623.763 214.935h-29.937v-15.94c0-1.805 1.504-3.308 3.31-3.308h23.317c1.805 0 3.31 1.503 3.31 3.308v15.94zM593.676 205.311h30.087"/>
    <path stroke="#9FA0A0" stroke-linecap="round" stroke-linejoin="round" stroke-miterlimit="10" d="M608.719 259.447c-13.99 0-25.273 3.91-25.273 8.722v94.288h50.697v-94.288c-.151-4.812-11.433-8.722-25.424-8.722z"/>
    <path stroke="#9FA0A0" stroke-linecap="round" stroke-linejoin="round" stroke-miterlimit="10" d="M608.719 308.17c8.059 0 14.593-6.531 14.593-14.587 0-8.056-6.534-14.586-14.593-14.586-8.059 0-14.592 6.53-14.592 14.586 0 8.056 6.533 14.587 14.592 14.587zM583.446 320.952h50.546M508.228 221.552H477.84v-13.835c0-1.804 1.504-3.308 3.309-3.308h23.619c1.805 0 3.309 1.504 3.309 3.308v13.835h.151zM471.672 389.225h47.538l16.849-75.34c.3-1.805.451-3.459.451-5.264 0-12.782-6.318-24.361-16.398-31.73-9.778-7.218-15.495-18.647-15.495-30.827v-24.362h-22.264v23.76c0 12.331-5.867 23.911-15.796 31.129-10.229 7.368-16.698 18.947-16.698 32.03 0 1.805.15 3.61.451 5.264l3.761 17.143M483.256 234.033h20.91M483.105 249.673h21.212"/>
    <path stroke="#9FA0A0" stroke-linecap="round" stroke-linejoin="round" stroke-miterlimit="10" d="M473.778 358.397l.451 3.158h37.609l7.823-53.385h-8.424c0-10.075-8.274-18.346-18.354-18.346-10.079 0-18.353 8.271-18.353 18.346h-8.123l4.814 32.783M284.38 200.048h-30.99c-1.204 0-2.106-.903-2.106-2.106v-5.864c0-1.203.902-2.106 2.106-2.106h30.99c1.203 0 2.106.903 2.106 2.106v5.864c0 1.203-.903 2.106-2.106 2.106zM230.223 222.905c1.203-1.955 2.407-2.857 4.513-3.91 9.176-4.511 19.105-10.075 20.609-18.947M267.832 353.134h-26.026M282.574 200.048c1.354 8.872 11.433 14.586 20.61 18.947 4.212 2.106 6.769 6.316 6.769 10.978v94.889M255.646 200.048h26.477M282.875 189.972h-27.981v-14.737c0-1.804 1.504-3.308 3.31-3.308h21.361c1.806 0 3.31 1.504 3.31 3.308v14.737zM254.894 180.95h27.981"/>
    <path stroke="#9FA0A0" stroke-linecap="round" stroke-linejoin="round" stroke-miterlimit="10" d="M245.116 304.411v23.459h47.387v-88.122c0-4.512-10.681-8.121-23.769-8.121s-23.769 3.609-23.769 8.121v46.768"/>
    <path stroke="#9FA0A0" stroke-linecap="round" stroke-linejoin="round" stroke-miterlimit="10" d="M268.884 277.192c7.478 0 13.54-6.059 13.54-13.534 0-7.475-6.062-13.534-13.54-13.534-7.477 0-13.539 6.059-13.539 13.534 0 7.475 6.062 13.534 13.539 13.534zM246.319 289.223h46.184M204.799 196.288h-28.432v-12.782c0-1.804 1.504-3.308 3.309-3.308h21.663c1.805 0 3.31 1.504 3.31 3.308v12.782h.15zM172.907 353.134h20.91M204.498 233.883c-2.106-4.662-3.159-9.624-3.159-14.887v-22.708h-20.91v22.257c0 11.428-5.567 22.256-14.743 29.023-9.478 6.917-15.645 17.744-15.645 29.925 0 1.654.15 3.308.3 4.963l1.505 6.616M181.331 207.868h19.557M181.181 222.605h19.857M175.615 327.268h16.397M201.189 263.959c-2.858-2.406-6.619-3.76-10.681-3.76-9.477 0-17.15 7.67-17.15 17.144h-7.822l4.814 33.083"/>
    <path fill="#020202" stroke="#fff" stroke-miterlimit="10" stroke-width=".5" d="M341.244 323.509c-20.609-4.211-38.812-44.362-56.413-83.31-18.504-40.753-35.804-79.25-57.467-85.265-11.583-3.158-20.91-2.256-27.68 2.707-9.628 7.068-10.53 20-10.53 22.106h3.009c.15-2.106 1.053-13.535 9.327-19.7 6.017-4.361 14.441-5.113 25.122-2.256 20.309 5.564 38.211 45.264 55.661 83.611 17.451 38.647 33.999 75.189 54.157 83.611.301-.151.752-.151 1.204-.151 1.655 0 3.309 0 5.115.151-.301-.602-.753-1.354-1.505-1.504z"/>
    <path fill="#020202" stroke="#fff" stroke-miterlimit="10" stroke-width=".5" d="M343.35 323.66v-.452c-8.274-5.112-14.592-38.797-20.76-71.279-8.725-46.317-17.751-94.288-35.954-96.995-12.185-1.804-17.751 9.775-18.955 16.091v.451h3.009c.301-1.353 3.46-15.339 15.645-13.534 15.946 2.256 25.273 51.279 33.397 94.438 6.469 34.587 12.185 64.813 21.061 72.483.903 0 1.655.15 2.557.15 0-.301 0-.451.151-.752v-.601h-.151z"/>
    <path fill="#020202" stroke="#fff" stroke-miterlimit="10" stroke-width=".5" d="M343.35 323.659v-.3c-12.787-4.963-22.264-32.031-32.042-60.753-13.239-38.197-28.132-81.656-56.564-92.634-7.221-2.857-13.991-2.707-20.008.301-12.787 6.316-17.902 23.008-18.052 23.76v.451h3.008c.752-2.406 5.867-16.391 16.398-21.504 5.265-2.557 11.132-2.557 17.601-.151 27.078 10.527 41.821 53.235 54.758 90.829 9.929 28.723 18.654 53.836 31.291 61.355 1.203 0 2.257.15 3.46.15 0-.3 0-.601.15-.752v-.752z"/>
    <path fill="#020202" stroke="#fff" stroke-miterlimit="10" stroke-width=".5" d="M343.35 323.659s0-.15 0 0c-55.21-2.255-115.083-71.43-154.798-117.295-17.902-20.752-30.84-35.64-38.06-38.196-23.017-7.971-30.388 11.278-30.388 11.428h3.309c1.655-3.458 8.575-14.887 26.176-8.722 6.318 2.256 19.707 17.745 36.706 37.294 37.158 43.009 92.067 106.318 145.02 116.845h.151c1.504 0 3.159.15 4.663.15.451-.15.903-.301 1.354-.301 1.956 0 3.911 0 5.867.151 0-.301 0-.602.15-.902v-.452h-.15zM550.2 130.873c-3.761-3.007-9.327-3.458-16.398-1.052-11.433 3.759-23.618 31.429-38.963 66.618-24.37 55.49-54.608 124.664-94.925 127.22-.301 0-.601.151-.902.301v.602c.601-.151 1.203-.301 1.805-.151 2.858.451 5.867.301 8.876.301 37.157-11.73 65.138-75.19 87.854-127.07 14.442-33.084 26.928-61.656 37.158-64.964 6.168-1.955 10.681-1.805 13.539.602 4.513 3.759 3.61 12.03 3.61 12.18 0 .451 0 .752.301 1.053h2.407c.151-.151.301-.451.301-.602 0-.601 1.204-10.225-4.663-15.038z"/>
    <path fill="#020202" stroke="#fff" stroke-miterlimit="10" stroke-width=".5" d="M466.106 145.912c-3.761-2.256-8.425-2.557-13.991-.752-21.663 6.767-29.937 61.204-37.157 109.024-4.514 29.926-9.177 60.904-16.398 68.122.15.752.301 1.504.301 2.256.602-.151 1.203-.301 1.805-.151 7.522-7.669 11.584-32.331 17.15-69.776 6.769-44.662 15.194-100.453 35.051-106.618 4.664-1.504 8.575-1.354 11.433.451 4.062 2.406 5.416 7.369 5.567 8.12h3.008v-.451c.151-.3-1.203-6.917-6.769-10.225z"/>
    <path fill="#020202" stroke="#fff" stroke-miterlimit="10" stroke-width=".5" d="M495.14 203.958c0-.151-5.115-16.091-20.158-15.339-26.026 1.354-36.105 38.196-45.733 73.836-7.822 29.023-15.344 56.543-30.538 60.753.15.451.15.903.15 1.354.602-.151 1.204-.301 1.806-.151.902.151 1.654.151 2.557.151 14.291-7.519 21.362-33.836 28.884-61.355 9.327-34.587 18.955-70.377 42.874-71.58 11.433-.602 15.946 10.075 16.849 12.632h3.159c.15-.151.15-.151.15-.301z"/>
    <path fill="#020202" stroke="#fff" stroke-miterlimit="10" stroke-width=".5" d="M601.498 171.175c-5.415-3.459-12.787-2.857-22.114 1.955-8.274 4.21-20.91 19.7-37.007 39.249-35.503 43.159-88.757 108.122-143.666 111.13 0 .301 0 .752.15 1.052.602-.15 1.204-.3 1.806-.15 3.159.451 6.318.301 9.477.451.301 0 .451 0 .752.151 51.75-10.828 100.642-70.227 133.888-110.679 15.796-19.249 28.432-34.587 36.105-38.497 8.274-4.211 14.592-4.963 19.105-2.106 8.123 5.264 7.371 21.204 7.371 21.354h3.009c0-1.654.451-17.895-8.876-23.91z"/>
    <path stroke="#fff" stroke-linecap="square" stroke-linejoin="round" stroke-miterlimit="10" d="M365.314 217.943h.451M370.729 217.943h.452M376.146 217.943h.451"/>
    <path fill="#fff" d="M367.119 406.218h-9.026c-.451 0-.903-.301-1.053-.602l-11.132-20.752c-.301-.602-.301-1.203 0-1.805.301-.601.902-.902 1.504-.902h20.008c.752 0 1.204.601 1.204 1.203 0 .752-.602 1.203-1.204 1.203h-18.955l10.38 19.098h7.071v-5.414H360.5c-.752 0-1.203-.601-1.203-1.203 0-.751.601-1.203 1.203-1.203h6.619c.752 0 1.204.602 1.204 1.203v7.82c0 .752-.452 1.354-1.204 1.354zM383.667 406.218h-9.026c-.752 0-1.203-.602-1.203-1.203v-7.82c0-.752.601-1.203 1.203-1.203h6.619c.752 0 1.204.601 1.204 1.203 0 .752-.602 1.203-1.204 1.203h-5.415v5.413h7.07l10.38-19.098H374.34c-.752 0-1.203-.601-1.203-1.203 0-.752.601-1.203 1.203-1.203h20.008c.602 0 1.204.301 1.505.903.3.601.3 1.203 0 1.804l-11.133 20.752c-.15.151-.601.452-1.053.452zM371.181 390.127h-.602c-.451 0-.752-.301-.752-.752v-.601c0-.452.301-.752.752-.752h.602c.451 0 .752.3.752.752v.601c0 .451-.301.752-.752.752zM371.181 393.285h-.602c-.451 0-.752-.301-.752-.752v-.602c0-.451.301-.751.752-.751h.602c.451 0 .752.3.752.751v.602c0 .451-.301.752-.752.752zM371.181 396.593h-.602c-.451 0-.752-.301-.752-.752v-.601c0-.451.301-.752.752-.752h.602c.451 0 .752.301.752.752v.601c0 .301-.301.752-.752.752zM371.181 399.751h-.602c-.451 0-.752-.301-.752-.752v-.601c0-.451.301-.752.752-.752h.602c.451 0 .752.301.752.752v.601c0 .451-.301.752-.752.752zM371.181 403.06h-.602c-.451 0-.752-.301-.752-.752v-.602c0-.451.301-.752.752-.752h.602c.451 0 .752.301.752.752v.602c0 .3-.301.752-.752.752zM371.181 406.218h-.602c-.451 0-.752-.301-.752-.752v-.602c0-.451.301-.752.752-.752h.602c.451 0 .752.301.752.752v.602c0 .451-.301.752-.752.752z"/>
    <path stroke="#fff" stroke-linecap="round" stroke-linejoin="round" stroke-miterlimit="10" d="M471.371 358.397H270.54v79.099h200.831v-79.099z"/>
    <path stroke="#fff" stroke-linecap="round" stroke-linejoin="round" stroke-miterlimit="10" d="M473.778 342.607H268.283v15.79h205.495v-15.79zM343.501 325.013H298.22l-29.937 17.594h205.495l-29.936-17.594H398.41"/>
    <path stroke="#fff" stroke-linecap="round" stroke-linejoin="round" stroke-miterlimit="10" d="M414.056 333.434h-86.05v4.963h86.05v-4.963zM328.006 333.434h86.05l-7.522-4.962h-71.156l-7.372 4.962z"/>
    <path stroke="#fff" stroke-linecap="round" stroke-linejoin="round" stroke-miterlimit="10" d="M402.773 333.434h-63.484v4.963h63.484v-4.963zM402.472 333.434h-63.033l4.213-4.962h54.608l4.212 4.962zM356.288 213.432v-27.369h29.485v27.369"/>
    <path stroke="#fff" stroke-linecap="round" stroke-linejoin="round" stroke-miterlimit="10" d="M385.773 213.432h-29.485v96.844h29.485v-96.844z"/>
    <path stroke="#fff" stroke-linecap="round" stroke-linejoin="round" stroke-miterlimit="10" d="M395.401 203.958l3.009 124.514h-54.909l3.009-124.514h9.778M424.285 169.671H317.626c-1.655 0-3.009-1.353-2.858-3.158l6.017-101.806c.151-1.504 1.354-2.707 2.858-2.707h94.624c1.505 0 2.859 1.203 2.859 2.707l6.017 101.806c.151 1.655-1.203 3.158-2.858 3.158z"/>
    <path stroke="#fff" stroke-linecap="round" stroke-linejoin="round" stroke-miterlimit="10" d="M414.206 160.047h-86.501c-1.053 0-1.955-.902-1.805-1.955l4.965-85.866c0-1.053.902-1.805 1.805-1.805h76.722c1.053 0 1.805.752 1.805 1.805l4.965 85.866c0 1.053-.903 1.955-1.956 1.955zM427.143 166.513v7.369c0 1.504-1.203 2.707-2.708 2.707H317.626c-1.504 0-2.708-1.203-2.708-2.707l-.15-7.369M402.923 176.589h-63.784v9.474h63.784v-9.474zM356.288 203.958h-9.778l-7.371-17.895h63.784l-7.521 17.895h-9.628"/>
    <path stroke="#fff" stroke-linecap="round" stroke-linejoin="round" stroke-miterlimit="10" stroke-width=".5" d="M373.287 299.9h-4.513v4.511h4.513V299.9zM373.287 292.08h-4.513v4.511h4.513v-4.511zM373.287 284.411h-4.513v4.511h4.513v-4.511zM373.287 276.591h-4.513v4.511h4.513v-4.511zM373.287 268.771h-4.513v4.512h4.513v-4.512zM373.287 260.951h-4.513v4.512h4.513v-4.512z"/>
    <path stroke="#fff" stroke-linecap="round" stroke-linejoin="round" stroke-miterlimit="10" d="M360.801 217.943h-1.654c-.452 0-.903-.15-1.204-.601l-1.504-1.955c-.602-.903 0-1.955 1.203-1.955h26.778c1.053 0 1.805 1.203 1.203 1.955l-1.504 1.955c-.301.3-.752.601-1.204.601h-1.504"/>
    <path stroke="#fff" stroke-linecap="round" stroke-linejoin="round" stroke-miterlimit="10" stroke-width=".5" d="M363.058 219.898c1.08 0 1.955-.269 1.955-.602 0-.332-.875-.601-1.955-.601s-1.956.269-1.956.601c0 .333.876.602 1.956.602zM361.102 216.74c0-.301.903-.601 1.956-.601s1.955.3 1.955.601M364.863 219.296v-2.556M361.102 219.296v-2.556M368.323 219.898c1.08 0 1.956-.269 1.956-.602 0-.332-.876-.601-1.956-.601s-1.956.269-1.956.601c0 .333.876.602 1.956.602zM366.367 216.74c0-.301.903-.601 1.956-.601s1.956.3 1.956.601M370.278 219.296v-2.556M366.367 219.296v-2.556M373.588 219.898c1.08 0 1.956-.269 1.956-.602 0-.332-.876-.601-1.956-.601s-1.956.269-1.956.601c0 .333.876.602 1.956.602zM371.784 216.74c0-.301.902-.601 1.955-.601s1.956.3 1.956.601M375.544 219.296v-2.556M371.783 219.296v-2.556M379.004 219.898c1.08 0 1.956-.269 1.956-.602 0-.332-.876-.601-1.956-.601s-1.956.269-1.956.601c0 .333.876.602 1.956.602zM377.048 216.74c0-.301.903-.601 1.956-.601s1.956.3 1.956.601M380.959 219.296v-2.556M377.048 219.296v-2.556"/>
</svg>
