<svg xmlns="http://www.w3.org/2000/svg" width="487" height="116" fill="none" viewBox="0 0 487 116">
    <path fill="#fff" d="M84.6 90.5l.924-.382-.255-.618H84.6v1zm-48.75 0v-1h-.669l-.255.618.924.382zm-9.3 22.5v1h.669l.255-.618-.924-.382zm-24.9 0l-.913-.407L.109 114H1.65v-1zM48.45 8V7h-.65l-.263.593.913.407zm24 0l.913-.408L73.098 7h-.648v1zm46.95 105v1h1.543l-.63-1.408-.913.408zm-25.5 0l-.924.382.255.618h.669v-1zM76.95 72.05v1h1.497l-.573-1.383-.924.383zM60.3 31.85l.924-.383-.924-2.23-.924 2.23.924.383zm-16.65 40.2l-.924-.383-.573 1.383h1.497v-1zM84.6 89.5H35.85v2H84.6v-2zm-49.674.618l-9.3 22.5 1.848.764 9.3-22.5-1.848-.764zM26.55 112H1.65v2h24.9v-2zm-23.987 1.407l46.8-105-1.826-.814-46.8 105 1.826.814zM48.45 9h24V7h-24v2zm23.087-.592l46.95 105 1.826-.816-46.95-105-1.826.816zM119.4 112H93.9v2h25.5v-2zm-24.576.618l-9.3-22.5-1.848.764 9.3 22.5 1.848-.764zm-16.95-40.95l-16.65-40.2-1.848.765 16.65 40.2 1.848-.766zm-18.498-40.2l-16.65 40.2 1.848.765 16.65-40.2-1.848-.766zM43.65 73.05h33.3v-2h-33.3v2zm153.094-36.7l-.498.867.008.005.009.005.481-.877zm14.55 14.55l-.874.486.003.006.871-.492zm0 43.65l.871.492.003-.006-.874-.486zm-14.55 14.55l.487.873.004-.002-.491-.871zm-45.75-5.4l.77-.638-1.77-2.136v2.774h1zm0 9.3v1h1v-1h-1zm-22.35 0h-1v1h1v-1zm0-111.3v-1h-1v1h1zm23.4 0h1v-1h-1v1zm0 39.15h-1v2.59l1.74-1.918-.74-.672zM186.994 89l-.725-.69v.001l.725.689zm0-32.55l-.734.68.009.009.009.01.716-.699zm-29.55 0l-.725-.69v.001l.725.689zm0 32.55l-.734.68.009.009.009.01.716-.699zm18.9-56.9c7.337 0 13.964 1.71 19.902 5.117l.995-1.734c-6.261-3.593-13.235-5.383-20.897-5.383v2zm19.919 5.127c6.031 3.307 10.746 8.02 14.157 14.159l1.748-.972c-3.59-6.461-8.575-11.448-14.943-14.94l-.962 1.753zm14.16 14.165c3.402 6.026 5.121 13.101 5.121 21.258h2c0-8.444-1.782-15.868-5.379-22.242l-1.742.984zm5.121 21.258c0 8.156-1.719 15.284-5.124 21.414l1.748.972c3.594-6.47 5.376-13.942 5.376-22.386h-2zm-5.121 21.408c-3.411 6.042-8.129 10.761-14.171 14.171l.983 1.742c6.359-3.59 11.34-8.571 14.93-14.93l-1.742-.983zm-14.166 14.169c-5.94 3.31-12.571 4.973-19.913 4.973v2c7.657 0 14.627-1.737 20.887-5.227l-.974-1.746zm-19.913 4.973c-10.875 0-19.012-3.418-24.58-10.138l-1.54 1.276c6.031 7.28 14.794 10.862 26.12 10.862v-2zm-26.35-9.5v9.3h2v-9.3h-2zm1 8.3h-22.35v2h22.35v-2zm-21.35 1V1.7h-2V113h2zm-1-110.3h23.4v-2h-23.4v2zm22.4-1v39.15h2V1.7h-2zm1.74 39.822c5.677-6.255 13.488-9.422 23.56-9.422v-2c-10.529 0-18.918 3.332-25.041 10.078l1.481 1.344zM172.294 96c6.247 0 11.418-2.094 15.425-6.311l-1.45-1.378C182.675 92.094 178.046 94 172.294 94v2zm15.424-6.31c4.112-4.323 6.126-10.038 6.126-17.04h-2c0 6.598-1.886 11.783-5.575 15.66l1.449 1.38zm6.126-17.04c0-7-2.014-12.672-6.134-16.898l-1.432 1.396c3.68 3.774 5.566 8.903 5.566 15.502h2zm-6.117-16.88c-4.004-4.32-9.178-6.47-15.433-6.47v2c5.744 0 10.371 1.95 13.966 5.83l1.467-1.36zm-15.433-6.47c-6.256 0-11.474 2.15-15.575 6.46l1.449 1.38c3.699-3.89 8.381-5.84 14.126-5.84v-2zm-15.575 6.461c-4.016 4.227-5.975 9.895-5.975 16.889h2c0-6.606 1.84-11.738 5.425-15.511l-1.45-1.378zm-5.975 16.889c0 6.995 1.96 12.707 5.966 17.03l1.467-1.36c-3.593-3.877-5.433-9.065-5.433-15.67h-2zm5.984 17.048c4.103 4.208 9.318 6.302 15.566 6.302v-2c-5.753 0-10.437-1.906-14.134-5.698l-1.432 1.396zm90.93 19.252l-.473.881.008.004.008.004.457-.889zm-15.75-14.85l-.856.517.856-.517zm0-42.9l-.856-.517.856.517zm15.75-14.7l.463.886.005-.002-.468-.884zm45.75 0l-.473.88.01.006.463-.886zm15.75 14.7l.856-.517-.856.517zm0 42.9l.856.517-.856-.517zm-15.75 14.85l.463.886.011-.005-.474-.881zm-8.1-19.95l-.724-.69-.001.001.725.689zm0-32.55l-.733.68.008.009.009.01.716-.699zm-29.55 0l.716.698.009-.009-.725-.689zm0 32.55l-.724.69.008.008.716-.698zm14.85 24.2c-8.359 0-15.849-1.72-22.492-5.139l-.915 1.778c6.956 3.581 14.766 5.361 23.407 5.361v-2zm-22.476-5.131c-6.548-3.518-11.663-8.344-15.368-14.486l-1.712 1.034c3.896 6.458 9.28 11.532 16.133 15.214l.947-1.762zm-15.368-14.486c-3.697-6.13-5.556-13.099-5.556-20.933h-2c0 8.166 1.942 15.497 5.844 21.966l1.712-1.032zm-5.556-20.933c0-7.834 1.859-14.803 5.556-20.934l-1.712-1.032c-3.902 6.469-5.844 13.8-5.844 21.966h2zm5.556-20.934c3.703-6.138 8.815-10.912 15.357-14.33l-.926-1.772c-6.858 3.582-12.246 8.608-16.143 15.07l1.712 1.033zm15.362-14.332c6.641-3.516 14.128-5.284 22.482-5.284v-2c-8.646 0-16.459 1.832-23.418 5.516l.936 1.768zm22.482-5.284c8.355 0 15.789 1.768 22.327 5.28l.947-1.76c-6.862-3.688-14.628-5.52-23.274-5.52v2zm22.337 5.286c6.542 3.418 11.654 8.192 15.357 14.33l1.712-1.032c-3.897-6.462-9.285-11.488-16.143-15.07l-.926 1.772zm15.357 14.33c3.698 6.131 5.556 13.1 5.556 20.934h2c0-8.166-1.941-15.497-5.844-21.967l-1.712 1.034zm5.556 20.934c0 7.834-1.858 14.803-5.556 20.933l1.712 1.034c3.903-6.47 5.844-13.801 5.844-21.967h-2zm-5.556 20.933c-3.704 6.142-8.82 10.968-15.367 14.486l.947 1.762c6.852-3.682 12.237-8.756 16.132-15.215l-1.712-1.032zm-15.357 14.481c-6.54 3.416-13.978 5.136-22.337 5.136v2c8.641 0 16.403-1.78 23.263-5.364l-.926-1.772zM270.608 96c6.248 0 11.419-2.094 15.425-6.311l-1.45-1.378C280.99 92.094 276.361 94 270.608 94v2zm15.425-6.31c4.111-4.323 6.125-10.038 6.125-17.04h-2c0 6.598-1.886 11.783-5.574 15.66l1.449 1.38zm6.125-17.04c0-7-2.014-12.672-6.134-16.898l-1.432 1.396c3.68 3.774 5.566 8.903 5.566 15.502h2zm-6.116-16.88c-4.005-4.32-9.178-6.47-15.434-6.47v2c5.745 0 10.371 1.95 13.967 5.83l1.467-1.36zm-15.434-6.47c-6.255 0-11.473 2.15-15.574 6.46l1.449 1.38c3.699-3.89 8.381-5.84 14.125-5.84v-2zm-15.566 6.452c-4.12 4.226-6.134 9.897-6.134 16.898h2c0-6.6 1.886-11.728 5.566-15.502l-1.432-1.396zm-6.134 16.898c0 7.002 2.014 12.717 6.126 17.04l1.449-1.38c-3.689-3.877-5.575-9.062-5.575-15.66h-2zm6.134 17.048c4.103 4.208 9.319 6.302 15.566 6.302v-2c-5.752 0-10.437-1.906-14.134-5.698l-1.432 1.396zM411.799 32.3h1v-1h-1v1zm0 80.7v1h1v-1h-1zm-22.2 0h-1v1h1v-1zm0-9.6h1v-2.637l-1.748 1.974.748.663zm-11.1 8.1l.386.922.009-.003.009-.004-.404-.915zm-39.15-6.45l.702-.713-.702.713zm-9.3-72.75v-1h-1v1h1zm23.4 0h1v-1h-1v1zm29.85 56.25l.727.687.01-.01-.737-.677zm5.1-56.25v-1h-1v1h1zm22.4 0V113h2V32.3h-2zm1 79.7h-22.2v2h22.2v-2zm-21.2 1v-9.6h-2v9.6h2zm-1.748-10.263c-3.004 3.392-6.587 6.006-10.756 7.848l.808 1.83c4.431-1.958 8.249-4.744 11.445-8.352l-1.497-1.326zm-10.738 7.841c-4.169 1.745-8.687 2.622-13.564 2.622v2c5.123 0 9.905-.923 14.336-2.778l-.772-1.844zm-13.564 2.622c-10.398 0-18.525-2.986-24.498-8.863l-1.403 1.426c6.426 6.323 15.1 9.437 25.901 9.437v-2zm-24.498-8.863c-5.946-5.85-9.002-14.6-9.002-26.437h-2c0 12.164 3.145 21.513 9.599 27.863l1.403-1.426zM331.049 77.9V32.3h-2v45.6h2zm-1-44.6h23.4v-2h-23.4v2zm22.4-1v42.15h2V32.3h-2zm0 42.15c0 6.615 1.383 11.763 4.321 15.267 2.967 3.538 7.374 5.233 13.029 5.233v-2c-5.245 0-9.013-1.556-11.496-4.517-2.512-2.996-3.854-7.598-3.854-13.983h-2zm17.35 20.5c5.836 0 10.613-1.886 14.227-5.713l-1.454-1.374c-3.185 3.373-7.408 5.087-12.773 5.087v2zm14.237-5.723c3.63-3.951 5.363-9.684 5.363-17.027h-2c0 7.057-1.667 12.224-4.836 15.673l1.473 1.354zm5.363-17.027V32.3h-2v39.9h2zm-1-38.9h23.4v-2h-23.4v2zm97.129 75.8l.594.804.611-.451-.271-.71-.934.357zm-8.55 3.9l.235.972.011-.003.01-.002-.256-.967zm-32.85-6.15l-.686.728.007.006.679-.734zm-7.8-54.75h1v-1h-1v1zm-12.45 0h-1v1h1v-1zm0-18v-1h-1v1h1zm12.45 0v1h1v-1h-1zm0-19.65v-1h-1v1h1zm23.4 0h1v-1h-1v1zm0 19.65h-1v1h1v-1zm20.1 0h1v-1h-1v1zm0 18v1h1v-1h-1zm-20.1 0v-1h-1v1h1zm2.55 40.8l-.745.667.018.02.02.02.707-.707zm16.95-.3l.934-.357-.479-1.255-1.065.82.61.792zm5.705 15.696c-2.178 1.61-4.906 2.862-8.211 3.737l.512 1.934c3.495-.925 6.466-2.273 8.888-4.063l-1.189-1.608zm-8.191 3.732c-3.216.78-6.637 1.172-10.264 1.172v2c3.772 0 7.352-.408 10.735-1.228l-.471-1.944zm-10.264 1.172c-9.433 0-16.61-2.405-21.671-7.084l-1.358 1.468c5.539 5.121 13.262 7.616 23.029 7.616v-2zm-21.664-7.078c-4.94-4.654-7.486-11.553-7.486-20.872h-2c0 9.68 2.654 17.182 8.114 22.328l1.372-1.456zm-7.486-20.872V52.1h-2v33.15h2zm-1-34.15h-12.45v2h12.45v-2zm-11.45 1v-18h-2v18h2zm-1-17h12.45v-2h-12.45v2zm13.45-1V14.45h-2V34.1h2zm-1-18.65h23.4v-2h-23.4v2zm22.4-1V34.1h2V14.45h-2zm1 20.65h20.1v-2h-20.1v2zm19.1-1v18h2v-18h-2zm1 17h-20.1v2h20.1v-2zm-21.1 1v32.85h2V52.1h-2zm0 32.85c0 3.563.892 6.48 2.805 8.617l1.49-1.334c-1.488-1.663-2.295-4.046-2.295-7.283h-2zm2.843 8.657c2.033 2.033 4.813 2.993 8.207 2.993v-2c-3.007 0-5.226-.84-6.793-2.407l-1.414 1.414zm8.207 2.993c3.891 0 7.262-1.056 10.059-3.207l-1.219-1.586c-2.403 1.849-5.331 2.793-8.84 2.793v2zm8.516-3.643l6.3 16.5 1.868-.714-6.3-16.5-1.868.714z"/>
</svg>
