<svg xmlns="http://www.w3.org/2000/svg" width="250" height="251" fill="none" viewBox="0 0 250 251">
    <path fill="#fff" d="M130.221 93.923c-3.988 0-7.802-1.56-10.229-4.16-3.641-3.815-4.855-9.19-5.375-13.87-.693-5.201-1.04-8.669-.867-14.044 0-.52.347-.866.867-.866s.867.346.867.867c-.173 5.2.173 8.495.867 13.696.693 4.507 1.734 9.362 5.028 12.83 2.253 2.253 5.547 3.64 9.015 3.64 3.641 0 6.935-1.387 9.015-3.64.347-.347.867-.347 1.214 0 .347.346.347.866 0 1.213-2.427 2.6-6.242 4.16-10.402 4.334zM151.025 79.013c-.693 0-1.56-.347-2.08-.693-.694-.52-1.04-1.387-.867-2.254.173-.52.52-.694 1.04-.694.52.174.694.52.694 1.04 0 .174 0 .347.173.52.347.347 1.04.52 1.387.347 1.04-.346 1.56-1.56 2.08-2.6l1.561-3.12c.173-.52.346-.868.52-1.214.173-1.04-.867-1.907-1.734-1.907-1.04-.174-2.254.346-3.294 1.213-.347.347-.867.174-1.214-.173-.346-.347-.173-.867.174-1.214 1.387-1.213 3.121-1.733 4.681-1.56 1.734.347 3.467 1.907 3.294 3.814 0 .694-.347 1.387-.694 1.907l-1.56 3.12c-.52 1.214-1.387 2.775-3.121 3.468-.346-.173-.693 0-1.04 0zM131.608 120.276h-.347c-.346-.174-.52-.347-.52-.694l-2.427-13.523c0-.347.173-.867.52-1.04 11.096-3.641 23.752-13.87 23.752-14.043.173-.174.693-.347.867-.174.347.174.52.52.52.867v8.669c0 .173 0 .347-.173.52-2.948 5.548-20.805 18.724-21.672 19.244-.173.174-.347.174-.52.174zm-1.387-13.697l2.081 11.269c3.987-2.947 17.337-13.176 20.284-17.683v-6.589c-3.641 2.774-13.176 9.883-22.365 13.003zM122.939 206.788c-13.35 0-52.531-37.275-54.265-38.835-.174-.174-.174-.174-.174-.347s-.866-2.601 0-7.802c.867-5.548 7.629-7.628 7.976-7.628h.52c34.674 14.216 42.649 17.511 44.556 18.204 1.734-2.254 8.495-13.523 11.096-17.857.867-1.561 1.56-2.601 1.734-2.948 1.213-2.08 2.6-3.987 3.814-6.068 2.08-3.294 4.334-6.588 6.414-10.055l.521-.867c3.12-5.201 6.588-10.922 12.309-14.043 3.294-1.734 8.148-4.161 12.483-3.467 8.495 1.387 10.229 16.47 10.575 22.885.52 10.055-2.253 19.07-7.801 25.312-14.043 15.603-39.009 42.129-48.891 43.343-.347.173-.694.173-.867.173zm-52.878-39.875c2.947 2.774 40.569 38.141 52.705 38.141h.693c9.709-1.213 36.755-30.34 47.851-42.649 5.201-5.895 7.975-14.39 7.455-23.925-.174-4.681-1.561-20.111-9.189-21.325-3.641-.693-8.322 1.734-11.443 3.294-5.374 2.774-8.495 8.149-11.615 13.35l-.521.693c-2.08 3.468-4.334 6.762-6.414 10.056-1.214 2.08-2.601 3.987-3.814 6.068-.174.346-.867 1.387-1.734 2.947-11.616 19.418-11.789 19.244-12.656 18.897-.174-.173-40.916-16.817-44.73-18.377-1.214.347-5.895 2.254-6.415 6.068-.693 3.988-.346 6.068-.173 6.762z"/>
    <path fill="#fff" d="M165.068 216.323H96.24c-.52 0-.867-.346-.867-.867v-24.792c0-.52.347-.867.867-.867s.867.347.867.867v23.926H164.2c-.173-5.202.521-22.539.521-22.712 1.213-5.895 2.427-8.842 3.814-12.136 1.213-2.947 2.427-5.895 3.641-11.443.173-.52.52-.693 1.04-.693.52.173.693.52.693 1.04-1.213 5.548-2.6 8.669-3.814 11.616-1.214 3.121-2.427 6.068-3.641 11.789-.52 2.254-.52 21.845-.52 23.059 0 .867-.52 1.213-.867 1.213zM96.067 161.885c-.52 0-.867-.347-.867-.867v-12.136c.173-12.136 6.068-28.953 9.015-33.634 2.774-4.508 15.257-8.495 15.777-8.669.347-.173.693 0 1.04.347.173.347.173.693 0 1.04-4.161 6.588-7.108 13.697-9.015 19.244 4.334-7.281 8.842-11.615 9.709-12.656l1.386-6.414c.174-.521.521-.694 1.041-.694.52.173.693.52.693 1.04l-1.387 6.588c0 .174-.173.347-.173.521 0 0-8.669 8.148-14.217 21.324-.173.347-.693.694-1.04.52-.347-.173-.693-.52-.52-1.04 0-.173 3.467-14.563 11.096-27.393-4.161 1.561-10.749 4.508-12.483 7.282-2.6 3.988-8.495 20.631-8.668 32.594v12.136c-.52.52-.867.867-1.387.867zM115.831 139.52h-.347c-.347-.174-.52-.52-.52-.867 0-.52 1.907-11.096 10.229-22.192l.173-.173 4.681-3.467c.347-.347.867-.174 1.214.173s.173.867-.174 1.214l-4.681 3.467c-5.201 6.761-7.801 13.696-8.842 17.684 1.041-1.387 2.081-2.774 3.294-4.161 3.121-4.161 6.762-8.669 10.229-12.136.347-.347.867-.347 1.214 0s.347.867 0 1.214c-3.294 3.467-6.935 7.975-10.056 12.136-2.08 2.6-3.987 5.201-5.721 7.108-.173-.174-.347 0-.693 0zM169.749 116.635c-.346 0-.52-.174-.693-.347-6.068-8.668-16.124-14.91-16.124-15.083-.346-.174-.52-.867-.346-1.214.173-.347.866-.52 1.213-.347.347.347 10.402 6.589 16.644 15.43.347.347.173.867-.174 1.214-.173.347-.346.347-.52.347zM113.751 59.075c-.174 0-.521-.173-.694-.346-3.641-4.508-1.734-11.963 2.254-15.43 4.334-3.814 10.576-4.334 14.91-4.334h3.814c2.601 0 5.201.173 7.802-.174 3.12-.347 6.414-1.734 9.535-4.334.347-.347.867-.174 1.214.173.346.347.173.867-.174 1.214-3.467 2.774-6.934 4.334-10.402 4.68-2.6.348-5.374.174-7.975.174h-3.814c-4.161 0-10.056.347-13.87 3.814-3.467 2.948-5.028 9.189-1.907 13.003.347.347.173.867-.173 1.214-.174.346-.347.346-.52.346z"/>
    <path fill="#fff" d="M121.725 55.781c-.346 0-.693-.173-.866-.52-.694-1.387-.694-3.12-.174-4.68.694-1.561 1.907-2.948 3.468-3.642 1.907-.866 4.161-.693 6.414-.693h.694c4.681.173 10.055.173 14.043-3.12.347-.347.867-.174 1.214.173.346.346.346.867-.174 1.213-4.334 3.641-10.055 3.468-15.083 3.468h-.694c-1.907 0-3.987-.174-5.548.52-1.213.52-2.08 1.387-2.6 2.6-.347 1.04-.347 2.254 0 3.294.173.347 0 .867-.347 1.214-.173.173-.173.173-.347.173zM130.221 56.822c-.347 0-.867-.347-.867-.694-.173-.867 0-1.56.52-2.254 1.387-1.733 4.681-1.907 6.242-2.08.693 0 1.387 0 2.253-.173 7.109-.347 17.858-.867 17.858-9.363 0-.52.346-.866.866-.866.521 0 .867.346.867.866 0 10.23-12.136 10.75-19.417 11.096-.867 0-1.561 0-2.254.174-1.214 0-4.161.346-5.028 1.387-.173.173-.173.52-.173.866 0 .52-.347.867-.867 1.04zM155.533 64.797c-.173 0-.347 0-.52-.173-.347-.174-.52-.867-.174-1.214 1.907-2.947 2.254-7.108.867-10.402-.173-.52 0-.867.52-1.214.52-.173.867 0 1.214.52 1.734 3.814 1.387 8.495-1.04 11.963-.347.347-.694.52-.867.52zM125.366 80.92c-.52 0-1.214-.347-1.56-.693-.52-.694-.52-1.734-.52-2.254V70.69c0-.52.346-.867.867-.867.52 0 .866.347.866.867v7.282c0 .52 0 1.04.174 1.213 0 0 .173.174.173 0 .173-.346.694-.52 1.04-.346.347.173.52.867.347 1.213-.173.52-.693.694-1.214.867h-.173zM132.301 70.171c-.867 0-1.734-.173-2.601-.347-.52-.173-.693-.693-.52-1.04.174-.52.694-.693 1.04-.52 1.734.52 3.641.347 5.202-.52.346-.173.866-.173 1.213.347.174.347.174.867-.347 1.213-1.04.52-2.6.867-3.987.867zM126.753 87.162c-.52 0-.867 0-1.387-.174-.52 0-.867-.52-.693-1.04 0-.52.52-.867 1.04-.693 1.04.173 2.08.173 2.947-.174.52-.173.867.174 1.04.52.174.52-.173.867-.52 1.04-.693.52-1.56.52-2.427.52zM74.395 154.95c-.693-.174-.867-.52-.867-1.04l.347-1.734c.867-4.508 1.907-10.056.174-13.87-.867-2.08-2.601-3.987-4.161-5.894l-10.056-11.79c-.347.174-.52.52-.52.694-.347.693-.347 1.733-.173 2.6.52 1.387 1.386 2.428 2.427 3.468l.693.693c1.56 1.734 1.04 5.548-.173 6.935-.347.347-.867.347-1.214 0-.346-.347-.346-.867 0-1.214.694-.866 1.04-3.64.174-4.681l-.694-.693c-1.04-1.214-2.254-2.427-2.774-4.161-.52-1.214-.347-2.774.174-3.987.52-.867 1.213-1.561 2.08-1.908.347-.173.694 0 .867.174l10.576 12.309c1.56 1.907 3.294 3.814 4.334 6.242 1.907 4.334.693 10.228-.174 14.909l-.346 1.734c.173.867-.347 1.214-.694 1.214z"/>
    <path fill="#fff" d="M69.02 162.578c-.173 0-.52 0-.693-.173-1.56-1.387-3.294-3.294-5.027-5.201-3.121-3.294-6.589-7.109-9.363-9.362-3.294-2.774-5.547-5.548-6.934-8.669-.52-1.214-.694-2.427-.867-3.641-.174-1.734-.52-3.12-1.907-4.161-2.948-2.08-5.375-4.507-7.975-7.108l-.52-.52c-.174-.173-.174-.347-.174-.52 0-.52 0-.867.347-1.387.52-.694 1.56-.867 2.254-.867 3.814-.173 7.455 2.254 10.055 3.814l13.87 9.189c.347.347.52.867.173 1.213-.173.347-.867.521-1.213.174l-13.87-9.189c-3.12-2.08-5.895-3.641-9.015-3.641-.347 0-.52.174-.694.174 2.427 2.427 4.855 4.854 7.629 6.761 2.253 1.561 2.427 3.468 2.773 5.375.174 1.04.347 2.08.694 3.12 1.213 2.774 3.294 5.548 6.415 8.149 2.774 2.427 6.241 6.068 9.535 9.535 1.734 1.907 3.468 3.814 5.028 5.201.347.347.347.867 0 1.214 0 .347-.347.52-.52.52zM49.603 115.768c-.52 0-1.04-.173-1.56-.867-1.56-1.907-2.601-4.161-3.295-5.895-.866-2.253-1.213-5.027.694-6.414.867-.52 1.734-.694 2.6-.52 1.214.346 2.254 1.56 2.601 2.947.347 1.214.694 2.6 1.04 3.814.174.867.52 1.907.347 2.947 0 1.387-.694 2.774-1.56 3.641-.174.174-.52.347-.867.347zm-3.294-7.455c.693 1.734 1.733 3.814 3.12 5.548l.174.173c.52-.52.867-1.387.867-2.254 0-.866-.174-1.56-.347-2.427-.347-1.213-.52-2.427-.867-3.641-.173-.866-.867-1.56-1.56-1.733-.347-.174-.694 0-1.04.173-1.387.52-.867 2.947-.347 4.161z"/>
    <path fill="#fff" d="M46.656 119.235c-1.214 0-2.08-.867-2.6-1.387-1.04-.866-2.081-2.08-2.775-3.467-.867-1.734-.693-3.641.174-5.028 0 0 .52-1.213 1.56-1.387.347 0 1.04-.173 1.56.347 1.214.867 3.641 6.068 4.335 7.628.173.694.173 1.387-.174 2.081-.346.693-1.04 1.04-1.733 1.04-.174.173-.347.173-.347.173zm-3.294-9.535c-.174 0-.347.347-.52.52-.694.867-.694 2.254-.174 3.294.52 1.214 1.56 2.081 2.428 3.121.52.52 1.04 1.04 1.387.867.173 0 .346-.174.346-.347.347 0 .347-.173.347-.347-1.387-3.121-3.12-6.588-3.814-7.108z"/>
    <path fill="#fff" d="M41.281 118.715c-.173 0-.347 0-.52-.173-.867-.52-1.214-1.56-1.214-2.601.174-1.213 1.04-2.6 2.08-2.947.52-.173.868 0 1.041.52.173.52 0 .867-.52 1.04-.347.174-.867.694-1.04 1.561 0 .52.173.867.346.867.347.346.52.866.174 1.213.173.52-.174.52-.347.52zM72.662 135.185c-.174 0-.52-.173-.694-.346-.347-.347-.347-.867 0-1.214 7.802-6.935 19.07-12.656 29.993-18.031l3.641-1.907c.347-.173.867 0 1.214.347.173.347 0 .867-.347 1.214l-3.814 1.907c-10.75 5.374-22.018 11.096-29.647 17.857 0 0-.173.173-.346.173zM84.45 156.51c-.346 0-.52-.173-.693-.347-.173-.346-.173-.866.347-1.213 1.734-1.04 3.814-2.254 5.894-3.294s4.161-2.254 5.722-3.294c.346-.174.867-.174 1.213.346.174.347.174.867-.347 1.214-1.733 1.04-3.814 2.254-5.894 3.294s-4.161 2.254-5.721 3.294c-.174-.173-.347 0-.52 0zM58.792 163.792c-1.56 0-3.121 0-4.681-.347-2.08-.347-5.028-1.04-7.282-3.294-3.294-3.294-3.64-7.975-4.16-12.309 0-.521-.174-1.214-.174-1.734-.347-2.947-.52-5.895-.52-8.842-.174-2.774-.174-5.721-.52-8.669 0-.52.346-.866.693-1.04.52 0 .867.347 1.04.694.347 2.947.52 5.894.52 8.668.174 2.947.174 5.895.52 8.669 0 .52.174 1.213.174 1.733.347 4.161.867 8.322 3.64 11.27 1.908 1.907 4.508 2.6 6.242 2.774 3.12.346 6.415.346 9.535.173 1.388 0 2.948-.173 4.335-.173.52 0 .867.346.867.866s-.347.867-.867.867c-1.387 0-2.774.174-4.161.174-1.734.346-3.468.52-5.201.52zM79.943 105.712L70.06 95.83l4.334-4.334c.867-.867 2.254-.867 2.947 0l6.935 6.935c.347.346.694.867.694 1.56 0 .52-.174 1.04-.694 1.56l-4.334 4.161zm-7.455-10.055l7.455 7.455 3.12-3.121c.174-.173.174-.173.174-.347 0 0 0-.173-.174-.346l-6.934-6.935c-.174-.174-.347-.174-.52 0l-3.121 3.294zM61.864 129.449l-3.46 2.888 1.11 1.331 3.461-2.888-1.11-1.331z"/>
    <path fill="#fff" d="M42.668 144.027l-9.535-9.708c-1.734-1.734-1.907-4.508-.347-6.415l3.814-4.508 1.387 1.04-3.814 4.508c-1.04 1.214-.867 2.947.173 4.161l9.536 9.709-1.214 1.213zM42.792 115.445l-4.703 5.784 1.345 1.094 4.703-5.784-1.345-1.094zM66.94 127.557l-1.04-1.387 11.616-9.709c.52-.346.867-1.04.867-1.56l.866-10.055-8.148-8.149-10.229.694c-.693 0-1.214.346-1.734.866l-7.801 9.536-1.387-1.04 7.801-9.536c.694-.867 1.734-1.387 2.948-1.56l11.096-.694 9.361 9.362-1.04 10.923c-.173 1.04-.693 2.08-1.387 2.774l-11.789 9.535z"/>
    <path fill="#fff" d="M59.909 95.967l-1.226 1.226L78.42 116.93l1.226-1.226L59.91 95.967zM145.824 72.425c-.693-.173-.867-.52-.867-1.04.174-1.04.347-2.254.347-3.294-.173-1.04-.52-2.08-1.214-2.6-.693-.694-1.733-.867-2.947-1.214-.347 0-.52-.174-.867-.174-2.254-.693-3.814-1.907-3.987-3.814 0-.52.173-.867.693-1.04.52 0 .867.173 1.04.694.174 1.213 1.214 1.907 2.774 2.427.347 0 .52.173.867.173 1.214.347 2.601.694 3.641 1.56 1.04.867 1.56 2.254 1.734 3.815.173 1.213-.174 2.6-.347 3.814 0 .347-.347.693-.867.693zM79.77 177.315c-.347 0-.694-.174-.694-.52-.52-1.041-.693-2.081-.867-3.468-.173-4.854 1.907-9.882 5.721-13.176 1.908-1.56 3.988-2.427 6.069-2.427.52 0 .866.347.866.867s-.346.867-.866.867c-1.56 0-3.295.693-4.855 1.907-3.294 2.947-5.201 7.455-5.028 11.789 0 1.214.347 2.08.694 2.774.173.347 0 .867-.347 1.213-.347.174-.52.174-.693.174zM151.372 94.27c-.347 0-.694-.347-.867-.694-1.04-5.027-1.04-7.281-.52-12.309 0-.52.52-.867 1.04-.693.52 0 .867.52.693 1.04-.52 4.854-.52 6.935.521 11.79.173.172-.174.693-.867.866.173 0 .173 0 0 0zM118.951 111.434c-.173 0-.52 0-.52-.174-.173-.173-.347-.693-.173-.867.173-.346 3.641-8.841 10.055-11.962-.346-1.734-.693-3.294-1.213-5.028-.174-.52 0-.867.52-1.04.52-.174.867 0 1.04.52 1.56 4.334 2.081 8.842 1.56 13.35 0 .346-.173.52-.52.693l-10.402 4.508c-.173-.174-.173 0-.347 0zm9.536-11.443c-3.641 2.081-6.415 6.242-7.629 8.669l7.629-3.468c.173-1.56.173-3.467 0-5.2zM200.609 216.323H44.749c-.52 0-.868-.346-.868-.867 0-.52.347-.866.867-.866H200.61c.52 0 .867.346.867.866 0 .521-.347.867-.867.867zM218.466 216.323h-10.922c-.52 0-.867-.346-.867-.867 0-.52.347-.866.867-.866h10.922c.521 0 .867.346.867.866 0 .521-.346.867-.867.867z"/>
</svg>
