<svg xmlns="http://www.w3.org/2000/svg" width="1378" height="201" fill="none" viewBox="0 0 1378 201">
    <path fill="#fff" d="M38.8 152.2l-.48.878.013.006.467-.884zm-27.2-25.8l-.861.508.003.007.004.006.854-.521zm0-74.6l-.857-.516-.001.003.858.513zM38.8 26l.472.882.003-.002L38.8 26zm71.8-3l-.401.916.004.002.397-.918zm24.8 18.4l.678.735.699-.645-.609-.73-.768.64zm-20.8 19.2l-.756.655.676.78.758-.7-.678-.735zM56.2 50l.481.877.007-.004.006-.004L56.2 50zm-16 15.8l-.87-.494-.003.006-.004.007.877.481zm0 46.4l-.877.481.004.007.004.006.869-.494zm16 16l-.494.869.006.004.007.004.481-.877zm58.4-11l.678-.735-.763-.704-.675.789.76.65zm20.8 19.2l.773.634.598-.729-.693-.64-.678.735zM110.6 155l-.397-.918.397.918zm-33 5.4c-14.118 0-26.889-3.033-38.333-9.084l-.934 1.768C50.089 159.3 63.185 162.4 77.6 162.4v-2zm-38.32-9.078c-11.317-6.184-20.253-14.662-26.826-25.443l-1.708 1.042c6.76 11.086 15.957 19.808 27.574 26.156l.96-1.755zm-26.819-25.43C6.026 114.991 2.8 102.702 2.8 89h-2c0 14.031 3.307 26.676 9.939 37.908l1.722-1.016zM2.8 89c0-13.703 3.226-25.922 9.658-36.687l-1.716-1.026C4.107 62.389.8 74.969.8 89h2zm9.657-36.684c6.573-10.911 15.506-19.385 26.815-25.434l-.944-1.764c-11.624 6.218-20.824 14.944-27.585 26.166l1.714 1.032zM39.275 26.88C50.716 20.7 63.55 17.6 77.8 17.6v-2c-14.55 0-27.716 3.167-39.475 9.52l.95 1.76zM77.8 17.6c12.015 0 22.808 2.112 32.399 6.316l.802-1.832C101.125 17.754 90.052 15.6 77.8 15.6v2zm32.403 6.318c9.728 4.206 17.866 10.246 24.429 18.122l1.536-1.28c-6.77-8.124-15.165-14.351-25.171-18.678l-.794 1.836zm24.519 16.747l-20.8 19.2 1.356 1.47 20.8-19.2-1.356-1.47zm-19.366 19.28C105.707 48.801 93.701 43.2 79.4 43.2v2c13.699 0 25.16 5.332 34.444 16.055l1.512-1.31zM79.4 43.2c-8.82 0-16.728 1.97-23.694 5.93l.988 1.74c6.634-3.773 14.194-5.67 22.706-5.67v-2zm-23.681 5.923c-6.964 3.824-12.431 9.223-16.388 16.183l1.738.988c3.776-6.64 8.976-11.774 15.612-15.417l-.962-1.754zM39.323 65.32C35.5 72.283 33.6 80.185 33.6 89h2c0-8.519 1.833-16.083 5.477-22.719l-1.754-.962zM33.6 89c0 8.815 1.9 16.717 5.723 23.681l1.754-.962C37.433 105.083 35.6 97.519 35.6 89h-2zm5.73 23.694c3.956 6.957 9.42 12.42 16.376 16.375l.988-1.738c-6.643-3.778-11.847-8.982-15.625-15.625l-1.738.988zm16.389 16.383C62.683 132.9 70.585 134.8 79.4 134.8v-2c-8.519 0-16.083-1.833-22.719-5.477l-.962 1.754zM79.4 134.8c14.305 0 26.312-5.671 35.96-16.95l-1.52-1.3c-9.285 10.855-20.746 16.25-34.44 16.25v2zm34.522-16.865l20.8 19.2 1.356-1.47-20.8-19.2-1.356 1.47zm20.705 17.831c-6.564 8.007-14.7 14.111-24.424 18.316l.794 1.836c10.01-4.329 18.406-10.625 25.176-18.884l-1.546-1.268zm-24.424 18.316c-9.726 4.206-20.589 6.318-32.603 6.318v2c12.252 0 23.39-2.155 33.397-6.482l-.794-1.836zM252.68 61.8l-.702.713.006.006.696-.719zm12.4 97.2v1h1v-1h-1zm-31.2 0h-1v1h1v-1zm-5.6-75.8l-.753.659.005.005.006.006.742-.67zm-35 1l.717.697.009-.01-.726-.687zm-7 74.8v1h1v-1h-1zm-31.2 0h-1v1h1v-1zm0-148.4v-1h-1v1h1zm31.2 0h1v-1h-1v1zm0 52h-1v2.414l1.707-1.707-.707-.707zm15-9.4l.341.94.01-.004.009-.003-.36-.933zm19.2-2.4c13.118 0 23.584 3.928 31.498 11.713l1.403-1.426C245.029 52.872 234.028 48.8 220.48 48.8v2zm31.504 11.719c8.009 7.75 12.096 19.316 12.096 34.881h2c0-15.902-4.18-28.07-12.705-36.319l-1.391 1.438zM264.08 97.4V159h2V97.4h-2zm1 60.6h-31.2v2h31.2v-2zm-30.2 1v-56.8h-2V159h2zm0-56.8c0-8.654-1.89-15.277-5.858-19.67l-1.484 1.34c3.498 3.873 5.342 9.917 5.342 18.33h2zm-5.848-19.659c-3.968-4.535-9.674-6.741-16.952-6.741v2c6.855 0 11.949 2.06 15.447 6.059l1.505-1.317zM212.08 75.8c-8.094 0-14.641 2.548-19.527 7.713l1.453 1.374c4.448-4.701 10.434-7.087 18.074-7.087v-2zm-19.517 7.703c-4.914 5.054-7.283 12.55-7.283 22.297h2c0-9.453 2.297-16.357 6.717-20.903l-1.434-1.394zM185.28 105.8V159h2v-53.2h-2zm1 52.2h-31.2v2h31.2v-2zm-30.2 1V10.6h-2V159h2zm-1-147.4h31.2v-2h-31.2v2zm30.2-1v52h2v-52h-2zm1.707 52.707c4.023-4.023 8.896-7.08 14.634-9.167l-.683-1.88c-5.995 2.18-11.122 5.39-15.365 9.633l1.414 1.414zm14.653-9.174c5.741-2.218 12.017-3.333 18.84-3.333v-2c-7.044 0-13.568 1.152-19.561 3.467l.721 1.866zm91.721-2.733v-1h-1v1h1zm31.2 0h1v-1h-1v1zm0 107.6v1h1v-1h-1zm-31.2 0h-1v1h1v-1zm1.6-127.6l-.679.734.679-.734zm0-24.8l.679.734-.679-.734zm28-.2l-.664.747.664-.747zm0 25l.679.734.008-.007.007-.007-.694-.72zm-29.6 21h31.2v-2h-31.2v2zm30.2-1V159h2V51.4h-2zm1 106.6h-31.2v2h31.2v-2zm-30.2 1V51.4h-2V159h2zm14.6-123.6c-5.527 0-9.936-1.6-13.321-4.734l-1.358 1.468c3.815 3.533 8.739 5.266 14.679 5.266v-2zm-13.321-4.734c-3.394-3.143-5.079-7.01-5.079-11.666h-2c0 5.21 1.915 9.61 5.721 13.134l1.358-1.468zM290.561 19c0-4.656 1.685-8.523 5.079-11.666l-1.358-1.468c-3.806 3.524-5.721 7.924-5.721 13.134h2zm5.079-11.666C299.025 4.2 303.434 2.6 308.961 2.6v-2c-5.94 0-10.864 1.733-14.679 5.266l1.358 1.468zM308.961 2.6c5.538 0 9.952 1.54 13.336 4.547l1.328-1.494C319.809 2.26 314.89.6 308.961.6v2zm13.336 4.547c3.387 3.011 5.064 6.74 5.064 11.253h2c0-5.087-1.923-9.358-5.736-12.747l-1.328 1.494zm5.064 11.253c0 4.94-1.698 9.01-5.094 12.28l1.388 1.44c3.804-3.663 5.706-8.26 5.706-13.72h-2zm-5.079 12.266c-3.385 3.134-7.794 4.734-13.321 4.734v2c5.94 0 10.864-1.733 14.679-5.266l-1.358-1.468zM353.517 10.6v-1h-1v1h1zm31.2 0h1v-1h-1v1zm0 148.4v1h1v-1h-1zm-31.2 0h-1v1h1v-1zm0-147.4h31.2v-2h-31.2v2zm30.2-1V159h2V10.6h-2zm1 147.4h-31.2v2h31.2v-2zm-30.2 1V10.6h-2V159h2zm59.156-148.4v-1h-1v1h1zm31.2 0h1v-1h-1v1zm0 148.4v1h1v-1h-1zm-31.2 0h-1v1h1v-1zm0-147.4h31.2v-2h-31.2v2zm30.2-1V159h2V10.6h-2zm1 147.4h-31.2v2h31.2v-2zm-30.2 1V10.6h-2V159h2zM612.27 61.8l-.667.745.006.005.661-.75zm13.4 97.2v1h1v-1h-1zm-29.2 0h-1v1h1v-1zm0-13.4h1v-3.681l-1.862 3.175.862.506zm-54.4 10.8l-.423.906.008.004.415-.91zm-13.8-11.6l.839-.544-.839.544zm6.4-40.4l-.602-.798-.007.005.609.793zm59.8-8.6v1h1v-1h-1zm-6.2-15.6l-.67.742.007.006.007.006.656-.754zm-35.6-2.8l.303.953.007-.002.007-.002-.317-.949zm-14 7.2l-.889.457.556 1.083.955-.757-.622-.783zm-11.2-21.8l-.576-.817-.711.5.398.774.889-.457zm21-9.6l-.264-.964h-.004l.268.964zm37.2 82.8l.502.865.011-.006.01-.006-.523-.853zm8.8-11l.941.34.059-.165V125h-1zm0-11h1v-1h-1v1zm-36 22.2l-.616.788.019.014.019.014.578-.816zm15.4-85.4c16.517 0 29.044 3.964 37.733 11.745l1.334-1.49C603.76 52.836 590.687 48.8 573.87 48.8v2zm37.739 11.75c8.651 7.618 13.061 19.233 13.061 35.05h2c0-16.183-4.523-28.435-13.739-36.55l-1.322 1.5zM624.67 97.6V159h2V97.6h-2zm1 60.4h-29.2v2h29.2v-2zm-28.2 1v-13.4h-2V159h2zm-1.862-13.906c-5.622 9.583-16.141 14.506-31.938 14.506v2c16.204 0 27.551-5.077 33.663-15.494l-1.725-1.012zM563.67 159.6c-8.155 0-15.207-1.381-21.184-4.11l-.831 1.82c6.29 2.871 13.637 4.29 22.015 4.29v-2zm-21.177-4.106c-5.852-2.731-10.298-6.481-13.384-11.238l-1.678 1.088c3.315 5.11 8.069 9.093 14.216 11.962l.846-1.812zm-13.384-11.238c-3.088-4.761-4.639-10.169-4.639-16.256h-2c0 6.447 1.649 12.238 4.961 17.344l1.678-1.088zM524.47 128c0-9.712 3.606-17.276 10.809-22.807l-1.218-1.586c-7.73 5.936-11.591 14.105-11.591 24.393h2zm10.803-22.802c7.345-5.541 18.752-8.398 34.397-8.398v-2c-15.821 0-27.748 2.877-35.602 8.802l1.205 1.596zM569.67 96.8h24.8v-2h-24.8v2zm25.8-1c0-7.014-2.14-12.52-6.543-16.354l-1.313 1.508c3.864 3.366 5.856 8.26 5.856 14.846h2zm-6.529-16.342c-4.389-3.964-10.874-5.858-19.271-5.858v2c8.137 0 14.052 1.84 17.93 5.342l1.341-1.484zM569.67 73.6c-5.844 0-11.617.952-17.316 2.851l.633 1.898c5.501-1.834 11.061-2.749 16.683-2.749v-2zm-17.302 2.847c-5.564 1.764-10.343 4.216-14.319 7.37l1.243 1.567c3.757-2.98 8.311-5.328 13.681-7.03l-.605-1.907zm-12.808 7.696l-11.2-21.8-1.779.914 11.2 21.8 1.779-.914zm-11.514-20.526c5.759-4.057 12.651-7.212 20.693-9.454l-.537-1.926c-8.225 2.292-15.333 5.536-21.308 9.745l1.152 1.636zm20.689-9.453c8.179-2.242 16.557-3.364 25.135-3.364v-2c-8.755 0-17.31 1.145-25.664 3.436l.529 1.928zM571.47 140.6c5.489 0 10.399-1.237 14.702-3.735l-1.004-1.73c-3.964 2.302-8.52 3.465-13.698 3.465v2zm14.723-3.747c4.337-2.659 7.412-6.512 9.218-11.513l-1.881-.68c-1.661 4.599-4.453 8.079-8.382 10.487l1.045 1.706zM595.47 125v-11h-2v11h2zm-1-12h-21.4v2h21.4v-2zm-21.4 0c-6.477 0-11.509 1.057-14.948 3.314-3.513 2.305-5.252 5.788-5.252 10.286h2c0-3.902 1.462-6.719 4.349-8.614 2.961-1.943 7.529-2.986 13.851-2.986v-2zm-20.2 13.6c0 4.298 1.668 7.792 4.984 10.388l1.233-1.576c-2.817-2.204-4.217-5.11-4.217-8.812h-2zm5.022 10.416c3.424 2.425 7.984 3.584 13.578 3.584v-2c-5.339 0-9.445-1.108-12.422-3.216l-1.156 1.632zM751.508 61.8l-.701.713.005.006.696-.719zm12.4 97.2v1h1v-1h-1zm-31.2 0h-1v1h1v-1zm-5.6-75.8l-.753.659.005.005.006.006.742-.67zm-35 1l.717.697.009-.01-.726-.687zm-7 74.8v1h1v-1h-1zm-31.2 0h-1v1h1v-1zm0-107.6v-1h-1v1h1zm29.8 0h1v-1h-1v1zm0 12.6h-1v2.581l1.739-1.907-.739-.674zm15.4-10.4l.364.931.009-.003.009-.004-.382-.924zm20.2-2.8c13.118 0 23.584 3.928 31.499 11.713l1.402-1.426c-8.352-8.215-19.353-12.287-32.901-12.287v2zm31.504 11.719c8.009 7.75 12.096 19.316 12.096 34.881h2c0-15.902-4.18-28.07-12.705-36.319l-1.391 1.438zM762.908 97.4V159h2V97.4h-2zm1 60.6h-31.2v2h31.2v-2zm-30.2 1v-56.8h-2V159h2zm0-56.8c0-8.654-1.89-15.277-5.858-19.67l-1.484 1.34c3.498 3.873 5.342 9.917 5.342 18.33h2zm-5.848-19.659c-3.968-4.535-9.674-6.741-16.952-6.741v2c6.855 0 11.949 2.06 15.447 6.059l1.505-1.317zM710.908 75.8c-8.094 0-14.641 2.548-19.527 7.713l1.453 1.374c4.448-4.701 10.434-7.087 18.074-7.087v-2zm-19.517 7.703c-4.914 5.054-7.283 12.55-7.283 22.297h2c0-9.453 2.298-16.357 6.717-20.903l-1.434-1.394zm-7.283 22.297V159h2v-53.2h-2zm1 52.2h-31.2v2h31.2v-2zm-30.2 1V51.4h-2V159h2zm-1-106.6h29.8v-2h-29.8v2zm28.8-1V64h2V51.4h-2zm1.739 13.274c4.022-4.412 9.024-7.795 15.025-10.143l-.729-1.862c-6.265 2.452-11.53 6.002-15.774 10.657l1.478 1.348zm15.043-10.15c6-2.478 12.602-3.724 19.818-3.724v-2c-7.451 0-14.315 1.287-20.582 3.876l.764 1.848zM897.036 51.4l.92.392.592-1.392h-1.512v1zm-48.6 114.2l-.92-.392-.005.011-.004.011.929.37zm-18.4 26.2l-.569-.823-.007.005.576.818zm-42.8 5l.302-.953-.302.953zm-13.4-7.2l-.89-.457-.355.691.582.515.663-.749zm11.4-22.2l.664-.747-.964-.858-.59 1.148.89.457zm8.2 5l-.364.931.006.003.007.002.351-.936zm19.8-1.4l-.6-.8-.013.009-.012.01.625.781zm7.2-10.2l.914.406.007-.017.007-.018-.928-.371zm.4-1l.928.371.155-.385-.164-.381-.919.395zm-46.6-108.4v-1h-1.518l.599 1.395.919-.395zm32.2 0l.924-.382-.256-.618h-.668v1zm30.2 73l-.924.382.921 2.227.926-2.225-.923-.384zm30.4-73v-1h-.667l-.256.616.923.384zm29.08-.392l-48.6 114.2 1.84.784 48.6-114.2-1.84-.784zM847.507 165.23c-4.895 12.303-10.931 20.836-18.039 25.747l1.136 1.646c7.558-5.222 13.789-14.156 18.761-26.653l-1.858-.74zm-18.047 25.752c-7.004 4.93-15.528 7.418-25.624 7.418v2c10.437 0 19.38-2.578 26.775-7.782l-1.151-1.636zm-25.624 7.418c-5.495 0-10.927-.85-16.298-2.553l-.604 1.906c5.562 1.764 11.197 2.647 16.902 2.647v-2zm-16.298-2.553c-5.364-1.701-9.699-4.041-13.039-6.996l-1.326 1.498c3.593 3.178 8.192 5.639 13.761 7.404l.604-1.906zm-12.812-5.79l11.399-22.2-1.779-.914-11.4 22.2 1.78.914zm9.846-21.91c2.49 2.214 5.326 3.942 8.5 5.184l.728-1.862c-2.959-1.158-5.59-2.764-7.9-4.816l-1.328 1.494zm8.513 5.189c3.299 1.238 6.551 1.864 9.751 1.864v-2c-2.934 0-5.948-.574-9.049-1.736l-.702 1.872zm9.751 1.864c4.436 0 8.14-1.112 11.025-3.419l-1.25-1.562c-2.449 1.959-5.678 2.981-9.775 2.981v2zm11-3.4c2.86-2.145 5.347-5.719 7.514-10.594l-1.828-.812c-2.1 4.725-4.413 7.951-6.886 9.806l1.2 1.6zm7.528-10.629l.4-1-1.857-.742-.4 1 1.857.742zm.391-1.766l-46.6-108.4-1.838.79 46.6 108.4 1.838-.79zM774.236 52.4h32.2v-2h-32.2v2zm31.276-.618l30.2 73 1.848-.764-30.2-73-1.848.764zm32.047 73.002l30.4-73-1.846-.768-30.4 73 1.846.768zM867.036 52.4h30v-2h-30v2zm115.061 101.4l.594.804.611-.451-.271-.71-.934.357zm-11.4 5.2l.235.972.011-.003.01-.002-.256-.967zm-43.8-8.2l-.686.728.007.006.679-.734zm-10.4-73h1v-1h-1v1zm-16.6 0h-1v1h1v-1zm0-24v-1h-1v1h1zm16.6 0v1h1v-1h-1zm0-26.2v-1h-1v1h1zm31.2 0h1v-1h-1v1zm0 26.2h-1v1h1v-1zm26.8 0h1v-1h-1v1zm0 24v1h1v-1h-1zm-26.8 0v-1h-1v1h1zm3.4 54.4l-.745.667.018.02.02.02.707-.707zm22.6-.4l.934-.357-.479-1.255-1.065.819.61.793zm7.806 21.196c-2.945 2.176-6.624 3.862-11.062 5.037l.512 1.934c4.628-1.225 8.55-3.006 11.738-5.363l-1.188-1.608zm-11.042 5.032c-4.316 1.047-8.903 1.572-13.764 1.572v2c5.006 0 9.752-.541 14.235-1.628l-.471-1.944zm-13.764 1.572c-12.633 0-22.293-3.222-29.121-9.534l-1.358 1.468c7.306 6.754 17.512 10.066 30.479 10.066v-2zm-29.114-9.528c-6.673-6.288-10.086-15.586-10.086-28.072h-2c0 12.847 3.52 22.749 10.714 29.528l1.372-1.456zM917.497 122V77.8h-2V122h2zm-1-45.2h-16.6v2h16.6v-2zm-15.6 1v-24h-2v24h2zm-1-23h16.6v-2h-16.6v2zm17.6-1V27.6h-2v26.2h2zm-1-25.2h31.2v-2h-31.2v2zm30.2-1v26.2h2V27.6h-2zm1 27.2h26.8v-2h-26.8v2zm25.8-1v24h2v-24h-2zm1 23h-26.8v2h26.8v-2zm-27.8 1v43.8h2V77.8h-2zm0 43.8c0 4.696 1.176 8.496 3.655 11.267l1.49-1.334c-2.054-2.296-3.145-5.562-3.145-9.933h-2zm3.693 11.307c2.633 2.633 6.247 3.893 10.707 3.893v-2c-4.073 0-7.126-1.14-9.293-3.307l-1.414 1.414zm10.707 3.893c5.124 0 9.546-1.389 13.21-4.207l-1.22-1.586c-3.27 2.516-7.248 3.793-11.99 3.793v2zm11.666-4.643l8.4 22 1.868-.714-8.4-22-1.868.714zM999.611 51.4v-1h-1v1h1zm31.199 0h1v-1h-1v1zm0 107.6v1h1v-1h-1zm-31.199 0h-1v1h1v-1zm1.599-127.6l-.68.734.68-.734zm0-24.8l.68.734-.68-.734zm28-.2l-.66.747.66-.747zm0 25l.68.734.01-.007v-.007l-.69-.72zm-29.599 21h31.199v-2h-31.199v2zm30.199-1V159h2V51.4h-2zm1 106.6h-31.199v2h31.199v-2zm-30.2 1V51.4h-1.999V159h1.999zm14.6-123.6c-5.53 0-9.94-1.6-13.32-4.734l-1.36 1.468c3.82 3.533 8.74 5.266 14.68 5.266v-2zm-13.32-4.734c-3.394-3.143-5.079-7.01-5.079-11.666h-2c0 5.21 1.915 9.61 5.719 13.134l1.36-1.468zM996.811 19c0-4.656 1.685-8.523 5.079-11.666l-1.36-1.468c-3.804 3.524-5.719 7.924-5.719 13.134h2zm5.079-11.666c3.38-3.134 7.79-4.734 13.32-4.734v-2c-5.94 0-10.86 1.733-14.68 5.266l1.36 1.468zm13.32-4.734c5.54 0 9.95 1.54 13.34 4.547l1.33-1.494C1026.06 2.26 1021.14.6 1015.21.6v2zm13.34 4.547c3.38 3.011 5.06 6.74 5.06 11.253h2c0-5.087-1.92-9.358-5.73-12.747l-1.33 1.494zm5.06 11.253c0 4.94-1.7 9.01-5.09 12.28l1.38 1.44c3.81-3.663 5.71-8.26 5.71-13.72h-2zm-5.08 12.266c-3.38 3.134-7.79 4.734-13.32 4.734v2c5.94 0 10.86-1.733 14.68-5.266l-1.36-1.468zM1229.57 61.8l-.72.701.01.006.01.006.7-.713zm12 97.2v1h1v-1h-1zm-31.2 0h-1v1h1v-1zm-5.4-75.8l-.78.63.01.014.01.013.76-.657zm-32.4.8l.74.675v-.01l-.74-.665zm-6.4 75v1h1v-1h-1zm-31.2 0h-1v1h1v-1zm-37.6-75l.74.675v-.01l-.74-.665zm-6.4 75v1h1v-1h-1zm-31.2 0h-1v1h1v-1zm0-107.6v-1h-1v1h1zm29.8 0h1v-1h-1v1zm0 12.4h-1v2.645l1.75-1.983-.75-.662zm14.6-10.4l-.38-.926-.01.004.39.922zm39.8 1l-.45.894.01.004.01.004.43-.902zm14.8 13l-.84.546.76 1.17.86-1.098-.78-.618zm16.6-13l-.41-.912-.01.004.42.908zm22.2-3.6c13.25 0 23.64 3.93 31.28 11.701l1.43-1.402c-8.09-8.229-19.04-12.299-32.71-12.299v2zm31.3 11.713c7.74 7.612 11.7 19.176 11.7 34.887h2c0-16.022-4.04-28.192-12.3-36.313l-1.4 1.426zm11.7 34.887V159h2V97.4h-2zm1 60.6h-31.2v2h31.2v-2zm-30.2 1v-56.8h-2V159h2zm0-56.8c0-8.647-1.82-15.264-5.65-19.657l-1.51 1.314c3.38 3.873 5.16 9.923 5.16 18.343h2zm-5.63-19.63c-3.69-4.546-9-6.77-15.77-6.77v2c6.29 0 10.98 2.043 14.22 6.03l1.55-1.26zm-15.77-6.77c-7.58 0-13.67 2.49-18.15 7.536l1.49 1.328c4.05-4.555 9.56-6.864 16.66-6.864v-2zm-18.14 7.525c-4.5 4.922-6.66 12.209-6.66 21.675h2c0-9.2 2.1-15.914 6.14-20.325l-1.48-1.35zM1165.17 105v54h2v-54h-2zm1 53h-31.2v2h31.2v-2zm-30.2 1v-56.8h-2V159h2zm0-56.8c0-8.574-1.72-15.19-5.32-19.676-3.64-4.528-9.06-6.724-16.08-6.724v2c6.58 0 11.35 2.038 14.52 5.976 3.19 3.98 4.88 10.065 4.88 18.424h2zm-21.4-26.4c-7.45 0-13.47 2.495-17.95 7.536l1.49 1.328c4.06-4.559 9.5-6.864 16.46-6.864v-2zm-17.94 7.525c-4.5 4.922-6.66 12.209-6.66 21.675h2c0-9.2 2.1-15.914 6.14-20.325l-1.48-1.35zM1089.97 105v54h2v-54h-2zm1 53h-31.2v2h31.2v-2zm-30.2 1V51.4h-2V159h2zm-1-106.6h29.8v-2h-29.8v2zm28.8-1v12.4h2V51.4h-2zm1.75 13.062c3.89-4.417 8.64-7.796 14.23-10.14l-.77-1.844c-5.87 2.456-10.86 6.01-14.96 10.66l1.5 1.324zm14.23-10.137c5.73-2.346 12-3.525 18.82-3.525v-2c-7.05 0-13.58 1.22-19.58 3.675l.76 1.85zm18.82-3.525c7.46 0 14.17 1.504 20.15 4.494l.89-1.788c-6.28-3.144-13.3-4.706-21.04-4.706v2zm20.17 4.502c5.96 2.854 10.76 7.063 14.39 12.644l1.68-1.092c-3.84-5.886-8.91-10.343-15.21-13.356l-.86 1.804zm16.01 12.716c4.3-5.472 9.71-9.707 16.24-12.71l-.84-1.816c-6.81 3.13-12.47 7.562-16.97 13.29l1.57 1.236zm16.23-12.706c6.66-3.005 13.92-4.512 21.79-4.512v-2c-8.13 0-15.68 1.56-22.61 4.688l.82 1.824zM1375.5 114v1h.93l.07-.923-1-.077zm-81.4 0v-1h-1.24l.27 1.215.97-.215zm10.4 15.8l.58-.816-.58.816zm35.2 3.4l.36.936v-.003l.01-.003-.37-.93zm12.2-8l.74-.678-.69-.752-.74.71.69.72zm16.6 18l.76.658.59-.676-.61-.66-.74.678zm-76.6 10.4l-.45.889.01.005.44-.894zm-21.6-19.8l-.85.516.85-.516zm-.2-57l-.86-.51v.004l.86.506zm20.6-19.8l.48.88v-.002l-.48-.878zm58-.4l.47-.883-.47.883zm20 19.6l-.87.49.01.008v.008l.86-.506zm-66.2 3.2l-.64-.768.64.768zm-8.8 16.4l-.98-.152-.18 1.152h1.16v-1zm53 0v1h1.17l-.18-1.155-.99.155zm-8.8-16.2l-.65.758.01.005v.005l.64-.768zm37.2 26c0 .349-.19 3.086-.59 8.323l1.99.154c.4-5.163.6-8.026.6-8.477h-2zm.4 7.4h-81.4v2h81.4v-2zm-82.37 1.215c1.52 6.905 5.12 12.388 10.8 16.401l1.15-1.632c-5.26-3.72-8.58-8.77-10-15.199l-1.95.43zm10.8 16.401c5.67 4.01 12.68 5.984 20.97 5.984v-2c-7.97 0-14.55-1.893-19.82-5.616l-1.15 1.632zm20.97 5.984c5.7 0 10.75-.813 15.16-2.464l-.71-1.872c-4.13 1.549-8.94 2.336-14.45 2.336v2zm15.17-2.47c4.53-1.785 8.71-4.528 12.53-8.21l-1.39-1.44c-3.65 3.518-7.61 6.109-11.87 7.79l.73 1.86zm11.1-8.252l16.6 18 1.47-1.356-16.6-18-1.47 1.356zm16.58 16.664c-9.89 11.328-24.39 17.058-43.65 17.058v2c19.68 0 34.79-5.87 45.16-17.742l-1.51-1.316zM1324.1 159.6c-12 0-22.57-2.308-31.75-6.894l-.89 1.788c9.49 4.747 20.38 7.106 32.64 7.106v-2zm-31.74-6.889c-9.18-4.722-16.23-11.198-21.2-19.427l-1.71 1.032c5.17 8.571 12.51 15.295 22 20.173l.91-1.778zm-21.2-19.427c-4.96-8.231-7.46-17.583-7.46-28.084h-2c0 10.832 2.58 20.547 7.75 29.116l1.71-1.032zm-7.46-28.084c0-10.37 2.43-19.66 7.27-27.894l-1.73-1.012c-5.03 8.566-7.54 18.21-7.54 28.906h2zm7.26-27.89c4.98-8.378 11.71-14.85 20.22-19.43l-.95-1.76c-8.83 4.753-15.83 11.482-20.99 20.17l1.72 1.02zm20.22-19.432c8.65-4.714 18.28-7.078 28.92-7.078v-2c-10.95 0-20.92 2.436-29.87 7.322l.95 1.756zm28.92-7.078c10.39 0 19.76 2.233 28.14 6.683l.93-1.766c-8.69-4.617-18.38-6.917-29.07-6.917v2zm28.14 6.683c8.36 4.442 14.89 10.838 19.59 19.207l1.75-.98c-4.9-8.698-11.7-15.369-20.41-19.993l-.93 1.766zm19.6 19.223c4.83 8.225 7.26 17.845 7.26 28.894h2c0-11.351-2.5-21.331-7.53-29.906l-1.73 1.012zM1320.3 72.4c-7.26 0-13.43 2.062-18.44 6.232l1.28 1.536c4.6-3.83 10.3-5.768 17.16-5.768v-2zm-18.44 6.232c-5.01 4.175-8.04 9.873-9.14 17.016l1.97.304c1.04-6.724 3.87-11.96 8.45-15.784l-1.28-1.536zM1293.7 96.8h53v-2h-53v2zm53.99-1.155c-1.1-7.014-4.14-12.642-9.15-16.813l-1.28 1.536c4.6 3.829 7.42 9 8.46 15.587l1.97-.31zm-9.13-16.803c-5-4.305-11.11-6.442-18.26-6.442v2c6.72 0 12.35 1.996 16.95 5.958l1.31-1.516z"/>
</svg>
