<svg xmlns="http://www.w3.org/2000/svg" width="1832" height="162" fill="none" viewBox="0 0 1832 162">
    <path fill="#fff" d="M1.6 19v-1h-1v1h1zM34 19h1v-1h-1v1zm0 113.6h-1v1h1v-1zm70.2 0h1v-1h-1v1zm0 26.4v1h1v-1h-1zM1.6 159h-1v1h1v-1zm0-139H34v-2H1.6v2zM33 19v113.6h2V19h-2zm1 114.6h70.2v-2H34v2zm69.2-1V159h2v-26.4h-2zm1 25.4H1.6v2h102.6v-2zM2.6 159V19h-2v140h2zm221.522-45v1h.926l.071-.923-.997-.077zm-81.4 0v-1h-1.244l.267 1.215.977-.215zm10.4 15.8l.577-.816-.577.816zm35.2 3.4l.351.936.008-.003.007-.003-.366-.93zm12.2-8l.735-.678-.693-.752-.736.71.694.72zm16.6 18l.753.658.591-.676-.609-.66-.735.678zm-76.6 10.4l-.458.889.011.005.447-.894zm-21.6-19.8l-.856.516.856-.516zm-.2-57l-.86-.51-.002.004.862.506zm20.6-19.8l.474.88.005-.002-.479-.878zm58-.4l.469-.883-.469.883zm20 19.6l-.872.49.005.008.005.008.862-.506zm-66.2 3.2l-.64-.768.64.768zm-8.8 16.4l-.988-.152-.178 1.152h1.166v-1zm53 0v1h1.169l-.181-1.155-.988.155zm-8.8-16.2l-.653.758.006.005.007.005.64-.768zm37.2 26c0 .349-.194 3.086-.597 8.323l1.994.154c.397-5.163.603-8.026.603-8.477h-2zm.4 7.4h-81.4v2h81.4v-2zm-82.377 1.215c1.519 6.905 5.125 12.388 10.799 16.401l1.155-1.632c-5.259-3.72-8.586-8.77-10-15.199l-1.954.43zm10.799 16.401c5.669 4.01 12.683 5.984 20.978 5.984v-2c-7.972 0-14.558-1.893-19.823-5.616l-1.155 1.632zm20.978 5.984c5.693 0 10.75-.813 15.151-2.464l-.702-1.872c-4.132 1.549-8.942 2.336-14.449 2.336v2zm15.166-2.47c4.534-1.785 8.709-4.528 12.528-8.21l-1.388-1.44c-3.648 3.518-7.606 6.109-11.873 7.79l.733 1.86zm11.099-8.252l16.6 18 1.47-1.356-16.6-18-1.47 1.356zm16.582 16.664c-9.896 11.328-24.387 17.058-43.647 17.058v2c19.673 0 34.782-5.87 45.153-17.742l-1.506-1.316zM172.722 159.6c-12.003 0-22.579-2.308-31.753-6.894l-.894 1.788c9.493 4.747 20.384 7.106 32.647 7.106v-2zm-31.743-6.889c-9.18-4.722-16.237-11.198-21.201-19.427l-1.712 1.032c5.169 8.571 12.512 15.295 21.999 20.173l.914-1.778zm-21.201-19.427c-4.964-8.231-7.456-17.583-7.456-28.084h-2c0 10.832 2.575 20.547 7.744 29.116l1.712-1.032zm-7.456-28.084c0-10.37 2.426-19.66 7.262-27.894l-1.724-1.012c-5.031 8.566-7.538 18.21-7.538 28.906h2zm7.26-27.89c4.975-8.378 11.708-14.85 20.214-19.43l-.948-1.76c-8.828 4.753-15.827 11.482-20.986 20.17l1.72 1.02zm20.219-19.432c8.642-4.714 18.275-7.078 28.921-7.078v-2c-10.954 0-20.921 2.436-29.879 7.322l.958 1.756zm28.921-7.078c10.385 0 19.755 2.233 28.131 6.683l.938-1.766C189.1 51.1 179.404 48.8 168.722 48.8v2zm28.131 6.683c8.362 4.442 14.89 10.838 19.597 19.207l1.743-.98c-4.892-8.698-11.697-15.369-20.402-19.993l-.938 1.766zm19.607 19.223c4.83 8.225 7.262 17.845 7.262 28.894h2c0-11.351-2.502-21.331-7.538-29.906l-1.724 1.012zM168.922 72.4c-7.268 0-13.437 2.062-18.44 6.232l1.28 1.536c4.597-3.83 10.295-5.768 17.16-5.768v-2zm-18.44 6.232c-5.011 4.175-8.05 9.873-9.148 17.016l1.976.304c1.035-6.724 3.863-11.96 8.452-15.784l-1.28-1.536zm-8.16 18.168h53v-2h-53v2zm53.988-1.155c-1.1-7.014-4.142-12.642-9.148-16.813l-1.28 1.536c4.594 3.829 7.419 9 8.452 15.587l1.976-.31zm-9.136-16.803c-4.999-4.305-11.104-6.442-18.252-6.442v2c6.718 0 12.346 1.996 16.947 5.958l1.305-1.516zm127.72 74.958l.594.804.611-.451-.271-.71-.934.357zm-11.4 5.2l.235.972.011-.003.01-.002-.256-.967zm-43.8-8.2l-.686.728.007.006.679-.734zm-10.4-73h1v-1h-1v1zm-16.6 0h-1v1h1v-1zm0-24v-1h-1v1h1zm16.6 0v1h1v-1h-1zm0-26.2v-1h-1v1h1zm31.2 0h1v-1h-1v1zm0 26.2h-1v1h1v-1zm26.8 0h1v-1h-1v1zm0 24v1h1v-1h-1zm-26.8 0v-1h-1v1h1zm3.4 54.4l-.746.667.019.02.02.02.707-.707zm22.6-.4l.934-.357-.479-1.255-1.065.819.61.793zm7.805 21.196c-2.944 2.176-6.623 3.862-11.061 5.037l.512 1.934c4.628-1.225 8.55-3.006 11.738-5.363l-1.189-1.608zm-11.041 5.032c-4.316 1.047-8.903 1.572-13.764 1.572v2c5.005 0 9.752-.541 14.235-1.628l-.471-1.944zm-13.764 1.572c-12.633 0-22.294-3.222-29.121-9.534l-1.358 1.468c7.305 6.754 17.512 10.066 30.479 10.066v-2zm-29.114-9.528c-6.673-6.288-10.086-15.586-10.086-28.072h-2c0 12.847 3.52 22.749 10.714 29.528l1.372-1.456zM250.294 122V77.8h-2V122h2zm-1-45.2h-16.6v2h16.6v-2zm-15.6 1v-24h-2v24h2zm-1-23h16.6v-2h-16.6v2zm17.6-1V27.6h-2v26.2h2zm-1-25.2h31.2v-2h-31.2v2zm30.2-1v26.2h2V27.6h-2zm1 27.2h26.8v-2h-26.8v2zm25.8-1v24h2v-24h-2zm1 23h-26.8v2h26.8v-2zm-27.8 1v43.8h2V77.8h-2zm0 43.8c0 4.696 1.176 8.496 3.654 11.267l1.491-1.334c-2.054-2.296-3.145-5.562-3.145-9.933h-2zm3.693 11.307c2.633 2.633 6.247 3.893 10.707 3.893v-2c-4.074 0-7.126-1.14-9.293-3.307l-1.414 1.414zm10.707 3.893c5.124 0 9.546-1.389 13.209-4.207l-1.219-1.586c-3.27 2.516-7.248 3.793-11.99 3.793v2zm11.666-4.643l8.4 22 1.868-.714-8.4-22-1.868.714zM327.808 19v-1h-1.036l.036 1.035 1-.035zm26.6 0l.999.039.04-1.039h-1.039v1zm-2.2 56.8v1h.962l.037-.961-.999-.039zm-22.4 0l-1 .035.034.965h.966v-1zm-2-55.8h26.6v-2h-26.6v2zm25.601-1.039l-2.2 56.8 1.998.078 2.2-56.8-1.998-.078zM352.208 74.8h-22.4v2h22.4v-2zm-21.401.965l-2-56.8-1.999.07 2 56.8 1.999-.07zm57.695 81.635l-.257.966.007.002.007.002.243-.97zm-20.4-8.4l-.907-.421-.364.782.721.474.55-.835zm10.4-22.4l.538-.843-.964-.615-.481 1.037.907.421zm17.4 7.6l-.283.959.009.003.009.002.265-.964zm34.4-13.6l-.348.938.348-.938zm-16.6-3.4l-.15.989.013.002.013.001.124-.992zm-21.8-4.6l.289-.957-.289.957zm-15-9.2l-.729.685.005.005.006.006.718-.696zm-.4-36.8l-.8-.6-.003.003.803.597zm17.2-12.4l-.361-.933-.005.002.366.931zm49.4-1.8l-.227.974.01.002.011.003.206-.979zm18.8 6.8l.905.424.385-.82-.779-.464-.511.86zm-10.4 22.2l-.491.871.939.53.457-.977-.905-.424zm-46-5.2l-.489-.873.489.873zm.4 14.2l.347-.938-.347.938zm17.2 3.8l.164-.987-.014-.002-.15.989zm21.6 4.8l-.296.955.01.004.011.002.275-.961zm14.6 9l-.729.685.729-.685zm.2 36.2l.792.61-.792-.61zm-17.6 12.2l.345.938.009-.003-.354-.935zm-27.2 3.2c-8.853 0-17.505-1.057-25.958-3.17l-.485 1.94c8.614 2.154 17.429 3.23 26.443 3.23v-2zm-25.944-3.166c-8.472-2.251-15.161-5.016-20.107-8.269l-1.099 1.67c5.187 3.413 12.098 6.249 20.693 8.531l.513-1.932zm-19.749-7.013l10.4-22.4-1.814-.842-10.4 22.4 1.814.842zm8.954-21.978c4.896 3.128 10.787 5.696 17.656 7.716l.565-1.918c-6.731-1.98-12.44-4.478-17.144-7.484l-1.077 1.686zm17.674 7.721c6.879 1.889 13.635 2.836 20.265 2.836v-2c-6.438 0-13.015-.919-19.736-2.764l-.529 1.928zM415.902 138c6.65 0 11.785-.818 15.293-2.554 1.768-.875 3.155-1.999 4.098-3.4.948-1.407 1.409-3.036 1.409-4.846h-2c0 1.456-.365 2.686-1.067 3.729-.707 1.049-1.795 1.966-3.327 2.725-3.092 1.53-7.857 2.346-14.406 2.346v2zm20.8-10.8c0-1.745-.518-3.29-1.576-4.583-1.046-1.278-2.567-2.247-4.477-2.955l-.695 1.876c1.69.626 2.869 1.423 3.624 2.345.742.907 1.124 1.995 1.124 3.317h2zm-6.053-7.538c-3.712-1.374-9.338-2.519-16.823-3.454l-.248 1.984c7.448.931 12.888 2.054 16.376 3.346l.695-1.876zm-16.798-3.451c-8.773-1.329-15.989-2.854-21.66-4.568l-.579 1.914c5.795 1.752 13.113 3.294 21.94 4.632l.299-1.978zm-21.66-4.568c-5.567-1.683-10.42-4.658-14.572-8.939l-1.435 1.392c4.382 4.519 9.528 7.678 15.428 9.461l.579-1.914zm-14.561-8.928c-3.906-4.158-5.928-10.146-5.928-18.115h-2c0 8.298 2.11 14.843 6.471 19.485l1.457-1.37zM371.702 84.6c0-6.596 1.87-12.385 5.602-17.403l-1.605-1.194c-4.001 5.382-5.997 11.593-5.997 18.597h2zm5.6-17.4c3.867-5.157 9.436-9.19 16.765-12.07l-.731-1.86c-7.604 2.986-13.502 7.22-17.634 12.73l1.6 1.2zm16.76-12.067c7.459-2.88 16.265-4.333 26.44-4.333v-2c-10.359 0-19.42 1.48-27.161 4.467l.721 1.866zm26.44-4.333c7.523 0 14.98.858 22.373 2.574l.453-1.948c-7.54-1.75-15.15-2.626-22.826-2.626v2zm22.394 2.579c7.527 1.584 13.682 3.82 18.495 6.68l1.022-1.718c-5.055-3.006-11.433-5.304-19.105-6.92l-.412 1.958zm18.1 5.397l-10.4 22.2 1.811.848 10.4-22.2-1.811-.848zm-9.004 21.753c-9.621-5.42-20.124-8.129-31.49-8.129v2c11.033 0 21.197 2.625 30.509 7.871l.981-1.742zm-31.49-8.129c-6.728 0-11.933.936-15.489 2.927l.977 1.746c3.111-1.742 7.905-2.673 14.512-2.673v-2zm-15.489 2.927c-3.539 1.982-5.511 4.667-5.511 8.073h2c0-2.46 1.36-4.576 4.488-6.328l-.977-1.745zm-5.511 8.073c0 1.857.505 3.496 1.558 4.86 1.044 1.355 2.571 2.365 4.494 3.078l.695-1.876c-1.676-.62-2.85-1.443-3.606-2.423-.747-.969-1.141-2.163-1.141-3.639h-2zm6.052 7.938c3.701 1.37 9.518 2.649 17.397 3.85l.301-1.977c-7.855-1.198-13.504-2.453-17.003-3.749l-.695 1.876zm17.383 3.848c8.776 1.463 15.928 3.054 21.469 4.77l.591-1.911c-5.659-1.752-12.907-3.36-21.731-4.831l-.329 1.972zm21.49 4.775c5.42 1.549 10.131 4.45 14.146 8.724l1.457-1.37c-4.252-4.526-9.274-7.625-15.054-9.276l-.549 1.922zm14.146 8.724c3.911 4.163 5.929 10.023 5.929 17.715h2c0-8.042-2.116-14.448-6.472-19.085l-1.457 1.37zm5.929 17.715c0 6.45-1.93 12.168-5.793 17.19l1.585 1.22c4.137-5.378 6.208-11.527 6.208-18.41h-2zm-5.793 17.19c-3.861 5.02-9.557 8.99-17.162 11.875l.709 1.87c7.862-2.982 13.899-7.145 18.038-12.525l-1.585-1.22zm-17.153 11.872c-7.462 2.749-16.405 4.138-26.854 4.138v2c10.617 0 19.807-1.411 27.545-4.262l-.691-1.876zm169.236-1.662l.595.804.61-.451-.271-.71-.934.357zm-11.4 5.2l.236.972.01-.003.01-.002-.256-.967zm-43.8-8.2l-.686.728.007.006.679-.734zm-10.4-73h1v-1h-1v1zm-16.6 0h-1v1h1v-1zm0-24v-1h-1v1h1zm16.6 0v1h1v-1h-1zm0-26.2v-1h-1v1h1zm31.2 0h1v-1h-1v1zm0 26.2h-1v1h1v-1zm26.8 0h1v-1h-1v1zm0 24v1h1v-1h-1zm-26.8 0v-1h-1v1h1zm3.4 54.4l-.745.667.018.02.02.02.707-.707zm22.6-.4l.934-.357-.479-1.255-1.065.819.61.793zm7.806 21.196c-2.945 2.176-6.623 3.862-11.062 5.037l.512 1.934c4.628-1.225 8.55-3.006 11.739-5.363l-1.189-1.608zm-11.041 5.032c-4.317 1.047-8.904 1.572-13.765 1.572v2c5.006 0 9.752-.541 14.236-1.628l-.471-1.944zm-13.765 1.572c-12.633 0-22.293-3.222-29.121-9.534l-1.358 1.468c7.306 6.754 17.512 10.066 30.479 10.066v-2zm-29.114-9.528c-6.673-6.288-10.086-15.586-10.086-28.072h-2c0 12.847 3.521 22.749 10.714 29.528l1.372-1.456zM546.192 122V77.8h-2V122h2zm-1-45.2h-16.6v2h16.6v-2zm-15.6 1v-24h-2v24h2zm-1-23h16.6v-2h-16.6v2zm17.6-1V27.6h-2v26.2h2zm-1-25.2h31.2v-2h-31.2v2zm30.2-1v26.2h2V27.6h-2zm1 27.2h26.8v-2h-26.8v2zm25.8-1v24h2v-24h-2zm1 23h-26.8v2h26.8v-2zm-27.8 1v43.8h2V77.8h-2zm0 43.8c0 4.696 1.176 8.496 3.655 11.267l1.49-1.334c-2.054-2.296-3.145-5.562-3.145-9.933h-2zm3.693 11.307c2.633 2.633 6.247 3.893 10.707 3.893v-2c-4.073 0-7.126-1.14-9.293-3.307l-1.414 1.414zm10.707 3.893c5.124 0 9.546-1.389 13.21-4.207l-1.22-1.586c-3.269 2.516-7.247 3.793-11.99 3.793v2zm11.666-4.643l8.4 22 1.868-.714-8.4-22-1.868.714zM710.106 61.8l-.667.745.006.005.661-.75zm13.4 97.2v1h1v-1h-1zm-29.2 0h-1v1h1v-1zm0-13.4h1v-3.681l-1.862 3.175.862.506zm-54.4 10.8l-.423.906.008.004.415-.91zm-13.8-11.6l.839-.544-.839.544zm6.4-40.4l-.602-.798-.007.005.609.793zm59.8-8.6v1h1v-1h-1zm-6.2-15.6l-.67.742.007.006.006.006.657-.754zm-35.6-2.8l.302.953.007-.002.008-.002-.317-.949zm-14 7.2l-.889.457.556 1.083.955-.757-.622-.783zm-11.2-21.8l-.576-.817-.711.5.398.774.889-.457zm21-9.6l-.264-.964h-.004l.268.964zm37.2 82.8l.502.865.011-.006.01-.006-.523-.853zm8.8-11l.941.34.059-.165V125h-1zm0-11h1v-1h-1v1zm-36 22.2l-.616.788.019.014.019.014.578-.816zm15.4-85.4c16.517 0 29.044 3.964 37.733 11.745l1.334-1.49c-9.177-8.219-22.25-12.255-39.067-12.255v2zm37.739 11.75c8.651 7.618 13.061 19.233 13.061 35.05h2c0-16.183-4.523-28.435-13.739-36.55l-1.322 1.5zm13.061 35.05V159h2V97.6h-2zm1 60.4h-29.2v2h29.2v-2zm-28.2 1v-13.4h-2V159h2zm-1.862-13.906c-5.622 9.583-16.141 14.506-31.938 14.506v2c16.204 0 27.551-5.077 33.663-15.494l-1.725-1.012zM661.506 159.6c-8.155 0-15.207-1.381-21.184-4.11l-.831 1.82c6.29 2.871 13.637 4.29 22.015 4.29v-2zm-21.177-4.106c-5.852-2.731-10.298-6.481-13.384-11.238l-1.678 1.088c3.315 5.11 8.069 9.093 14.216 11.962l.846-1.812zm-13.384-11.238c-3.088-4.761-4.639-10.169-4.639-16.256h-2c0 6.447 1.649 12.238 4.961 17.344l1.678-1.088zM622.306 128c0-9.712 3.606-17.276 10.809-22.807l-1.218-1.586c-7.73 5.936-11.591 14.105-11.591 24.393h2zm10.802-22.802c7.346-5.541 18.753-8.398 34.398-8.398v-2c-15.821 0-27.748 2.877-35.602 8.802l1.204 1.596zm34.398-8.398h24.8v-2h-24.8v2zm25.8-1c0-7.014-2.141-12.52-6.543-16.354l-1.314 1.508c3.865 3.366 5.857 8.26 5.857 14.846h2zm-6.529-16.342c-4.389-3.964-10.874-5.858-19.271-5.858v2c8.137 0 14.052 1.84 17.93 5.342l1.341-1.484zM667.506 73.6c-5.844 0-11.617.952-17.316 2.851l.633 1.898c5.501-1.834 11.061-2.749 16.683-2.749v-2zm-17.302 2.847c-5.564 1.764-10.343 4.216-14.319 7.37l1.243 1.567c3.757-2.98 8.311-5.328 13.68-7.03l-.604-1.907zm-12.808 7.696l-11.2-21.8-1.779.914 11.2 21.8 1.779-.914zm-11.514-20.526c5.759-4.057 12.65-7.212 20.693-9.454l-.537-1.926c-8.225 2.292-15.333 5.536-21.308 9.745l1.152 1.636zm20.689-9.453c8.179-2.242 16.557-3.364 25.135-3.364v-2c-8.755 0-17.31 1.145-25.664 3.436l.529 1.928zm22.735 86.436c5.489 0 10.399-1.237 14.702-3.735l-1.004-1.73c-3.964 2.302-8.52 3.465-13.698 3.465v2zm14.723-3.747c4.337-2.659 7.412-6.512 9.218-11.513l-1.881-.68c-1.661 4.599-4.453 8.079-8.382 10.487l1.045 1.706zM693.306 125v-11h-2v11h2zm-1-12h-21.4v2h21.4v-2zm-21.4 0c-6.477 0-11.509 1.057-14.948 3.314-3.513 2.305-5.252 5.788-5.252 10.286h2c0-3.902 1.462-6.719 4.349-8.614 2.961-1.943 7.529-2.986 13.851-2.986v-2zm-20.2 13.6c0 4.298 1.668 7.792 4.984 10.388l1.233-1.576c-2.817-2.204-4.217-5.11-4.217-8.812h-2zm5.022 10.416c3.424 2.425 7.984 3.584 13.578 3.584v-2c-5.339 0-9.446-1.108-12.422-3.216l-1.156 1.632zM797.944 116.8l.778-.627-.693-.862-.788.777.703.712zm-15 14.8l-.703-.712-.297.294v.418h1zm0 27.4v1h1v-1h-1zm-31.2 0h-1v1h1v-1zm0-148.4v-1h-1v1h1zm31.2 0h1v-1h-1v1zm0 84h-1v2.325l1.687-1.6-.687-.725zm45.6-43.2v-1h-.399l-.289.274.688.726zm37.2 0l.713.7 1.671-1.7h-2.384v1zm-44.8 45.6l-.714-.7-.616.627.544.691.786-.618zm48.8 62v1h2.059l-1.273-1.618-.786.618zm-37.8 0l-.779.627.3.373h.479v-1zm-34.703-42.912l-15 14.8 1.405 1.424 15-14.8-1.405-1.424zM781.944 131.6V159h2v-27.4h-2zm1 26.4h-31.2v2h31.2v-2zm-30.2 1V10.6h-2V159h2zm-1-147.4h31.2v-2h-31.2v2zm30.2-1v84h2v-84h-2zm1.687 84.726l45.601-43.2-1.376-1.452-45.6 43.2 1.375 1.452zM828.544 52.4h37.2v-2h-37.2v2zm36.486-1.7l-44.8 45.6 1.427 1.4 44.8-45.6-1.427-1.4zm-44.872 46.918l48.8 62 1.572-1.236-48.8-62-1.572 1.236zM869.744 158h-37.8v2h37.8v-2zm-37.022.373l-34-42.2-1.557 1.254 34 42.2 1.557-1.254zM983.888 114v1h.926l.071-.923-.997-.077zm-81.401 0v-1h-1.243l.267 1.215.976-.215zm10.401 15.8l.577-.816-.577.816zm35.2 3.4l.351.936.007-.003.008-.003-.366-.93zm12.199-8l.736-.678-.694-.752-.736.71.694.72zm16.601 18l.753.658.59-.676-.608-.66-.735.678zm-76.601 10.4l-.457.889.01.005.447-.894zm-21.599-19.8l-.857.516.857-.516zm-.201-57l-.859-.51-.003.004.862.506zM899.088 57l.474.88.004-.002-.478-.878zm58-.4l.469-.883-.469.883zm20 19.6l-.872.49.005.008.004.008.863-.506zm-66.2 3.2l-.641-.768.641.768zm-8.8 16.4l-.989-.152-.177 1.152h1.166v-1zm53 0v1h1.169l-.182-1.155-.987.155zm-8.801-16.2l-.652.758.006.005.006.005.64-.768zm37.2 26c0 .349-.194 3.086-.597 8.323l1.995.154c.397-5.163.602-8.026.602-8.477h-2zm.401 7.4h-81.401v2h81.401v-2zm-82.377 1.215c1.519 6.905 5.125 12.388 10.799 16.401l1.155-1.632c-5.259-3.72-8.587-8.77-10.001-15.199l-1.953.43zm10.799 16.401c5.669 4.01 12.682 5.984 20.977 5.984v-2c-7.971 0-14.558-1.893-19.822-5.616l-1.155 1.632zm20.977 5.984c5.694 0 10.75-.813 15.152-2.464l-.703-1.872c-4.132 1.549-8.942 2.336-14.449 2.336v2zm15.167-2.47c4.533-1.785 8.709-4.528 12.528-8.21l-1.389-1.44c-3.648 3.518-7.605 6.109-11.872 7.79l.733 1.86zm11.098-8.252l16.6 18 1.471-1.356-16.6-18-1.471 1.356zm16.582 16.664c-9.895 11.328-24.387 17.058-43.647 17.058v2c19.674 0 34.782-5.87 45.154-17.742l-1.507-1.316zM932.487 159.6c-12.003 0-22.579-2.308-31.752-6.894l-.895 1.788c9.493 4.747 20.384 7.106 32.647 7.106v-2zm-31.742-6.889c-9.18-4.722-16.237-11.198-21.201-19.427l-1.713 1.032c5.169 8.571 12.513 15.295 21.999 20.173l.915-1.778zm-21.201-19.427c-4.965-8.231-7.456-17.583-7.456-28.084h-2c0 10.832 2.574 20.547 7.743 29.116l1.713-1.032zm-7.456-28.084c0-10.37 2.426-19.66 7.262-27.894l-1.725-1.012c-5.031 8.566-7.537 18.21-7.537 28.906h2zm7.259-27.89c4.975-8.378 11.709-14.85 20.215-19.43l-.949-1.76c-8.827 4.753-15.827 11.482-20.985 20.17l1.719 1.02zm20.219-19.432c8.642-4.714 18.275-7.078 28.921-7.078v-2c-10.953 0-20.92 2.436-29.878 7.322l.957 1.756zm28.921-7.078c10.385 0 19.755 2.233 28.131 6.683l.939-1.766c-8.691-4.617-18.388-6.917-29.07-6.917v2zm28.131 6.683c8.362 4.442 14.89 10.838 19.598 19.207l1.743-.98c-4.892-8.698-11.698-15.369-20.402-19.993l-.939 1.766zm19.607 19.223c4.831 8.225 7.262 17.845 7.262 28.894h2c0-11.351-2.501-21.331-7.537-29.906l-1.725 1.012zM928.688 72.4c-7.269 0-13.437 2.062-18.441 6.232l1.281 1.536c4.596-3.83 10.294-5.768 17.16-5.768v-2zm-18.441 6.232c-5.01 4.175-8.049 9.873-9.148 17.016l1.977.304c1.034-6.724 3.862-11.96 8.452-15.784l-1.281-1.536zM902.088 96.8h53v-2h-53v2zm53.987-1.155c-1.1-7.014-4.141-12.642-9.147-16.813l-1.281 1.536c4.594 3.829 7.419 9 8.453 15.587l1.975-.31zm-9.135-16.803c-4.999-4.305-11.104-6.442-18.252-6.442v2c6.718 0 12.346 1.996 16.947 5.958l1.305-1.516zM1143.7 61.8l-.67.745.01.005.66-.75zm13.4 97.2v1h1v-1h-1zm-29.2 0h-1v1h1v-1zm0-13.4h1v-3.681l-1.86 3.175.86.506zm-54.4 10.8l-.42.906v.004l.42-.91zm-13.8-11.6l.84-.544-.84.544zm6.4-40.4l-.6-.798-.01.005.61.793zm59.8-8.6v1h1v-1h-1zm-6.2-15.6l-.67.742.01.006v.006l.66-.754zm-35.6-2.8l.3.953.01-.002.01-.002-.32-.949zm-14 7.2l-.89.457.56 1.083.95-.757-.62-.783zm-11.2-21.8l-.58-.817-.71.5.4.774.89-.457zm21-9.6l-.26-.964h-.01l.27.964zm37.2 82.8l.5.865.01-.006.01-.006-.52-.853zm8.8-11l.94.34.06-.165V125h-1zm0-11h1v-1h-1v1zm-36 22.2l-.62.788.02.014.02.014.58-.816zm15.4-85.4c16.52 0 29.04 3.964 37.73 11.745l1.34-1.49c-9.18-8.219-22.25-12.255-39.07-12.255v2zm37.74 11.75c8.65 7.618 13.06 19.233 13.06 35.05h2c0-16.183-4.52-28.435-13.74-36.55l-1.32 1.5zm13.06 35.05V159h2V97.6h-2zm1 60.4h-29.2v2h29.2v-2zm-28.2 1v-13.4h-2V159h2zm-1.86-13.906c-5.62 9.583-16.14 14.506-31.94 14.506v2c16.2 0 27.55-5.077 33.66-15.494l-1.72-1.012zM1095.1 159.6c-8.16 0-15.21-1.381-21.18-4.11l-.84 1.82c6.29 2.871 13.64 4.29 22.02 4.29v-2zm-21.18-4.106c-5.85-2.731-10.3-6.481-13.38-11.238l-1.68 1.088c3.32 5.11 8.07 9.093 14.22 11.962l.84-1.812zm-13.38-11.238c-3.09-4.761-4.64-10.169-4.64-16.256h-2c0 6.447 1.65 12.238 4.96 17.344l1.68-1.088zM1055.9 128c0-9.712 3.61-17.276 10.81-22.807l-1.22-1.586c-7.73 5.936-11.59 14.105-11.59 24.393h2zm10.8-22.802c7.35-5.541 18.75-8.398 34.4-8.398v-2c-15.82 0-27.75 2.877-35.6 8.802l1.2 1.596zm34.4-8.398h24.8v-2h-24.8v2zm25.8-1c0-7.014-2.14-12.52-6.54-16.354l-1.32 1.508c3.87 3.366 5.86 8.26 5.86 14.846h2zm-6.53-16.342c-4.39-3.964-10.87-5.858-19.27-5.858v2c8.14 0 14.05 1.84 17.93 5.342l1.34-1.484zM1101.1 73.6c-5.84 0-11.62.952-17.32 2.851l.64 1.898c5.5-1.834 11.06-2.749 16.68-2.749v-2zm-17.3 2.847c-5.57 1.764-10.35 4.216-14.32 7.37l1.24 1.567c3.76-2.98 8.31-5.328 13.68-7.03l-.6-1.907zm-12.81 7.696l-11.2-21.8-1.78.914 11.2 21.8 1.78-.914zm-11.51-20.526c5.75-4.057 12.65-7.212 20.69-9.454l-.54-1.926c-8.22 2.292-15.33 5.536-21.31 9.745l1.16 1.636zm20.68-9.453c8.18-2.242 16.56-3.364 25.14-3.364v-2c-8.75 0-17.31 1.145-25.66 3.436l.52 1.928zm22.74 86.436c5.49 0 10.4-1.237 14.7-3.735l-1-1.73c-3.97 2.302-8.52 3.465-13.7 3.465v2zm14.72-3.747c4.34-2.659 7.41-6.512 9.22-11.513l-1.88-.68c-1.66 4.599-4.45 8.079-8.38 10.487l1.04 1.706zM1126.9 125v-11h-2v11h2zm-1-12h-21.4v2h21.4v-2zm-21.4 0c-6.48 0-11.51 1.057-14.95 3.314-3.51 2.305-5.25 5.788-5.25 10.286h2c0-3.902 1.46-6.719 4.35-8.614 2.96-1.943 7.53-2.986 13.85-2.986v-2zm-20.2 13.6c0 4.298 1.67 7.792 4.98 10.388l1.24-1.576c-2.82-2.204-4.22-5.11-4.22-8.812h-2zm5.02 10.416c3.43 2.425 7.99 3.584 13.58 3.584v-2c-5.34 0-9.45-1.108-12.42-3.216l-1.16 1.632zM1351.58 10.6h1v-1h-1v1zm0 148.4v1h1v-1h-1zm-29.8 0h-1v1h1v-1zm0-12.4h1v-2.774l-1.77 2.136.77.638zm-61.2 7.2l-.49.874.01.003.48-.877zm-19.2-19.4l.87-.486-.87.486zm0-58.4l.87.486-.87-.486zm19.2-19.4l-.48-.877-.01.004.49.873zm59.8 6.2l-.75.666 1.75 1.957V62.8h-1zm0-52.2v-1h-1v1h1zm-7.2 116.4l.71.698.01-.009-.72-.689zm0-43.4l-.73.69.01.008.72-.698zm-39.4 0l.71.698.01-.009-.72-.689zm0 43.4l-.73.689.01.009.72-.698zm76.8-116.4V159h2V10.6h-2zm1 147.4h-29.8v2h29.8v-2zm-28.8 1v-12.4h-2V159h2zm-1.77-13.038c-7.51 9.056-18.39 13.638-32.83 13.638v2c14.89 0 26.4-4.751 34.37-14.362l-1.54-1.276zm-32.83 13.638c-9.98 0-19.01-2.23-27.12-6.677l-.96 1.754c8.42 4.62 17.79 6.923 28.08 6.923v-2zm-27.12-6.673c-7.96-4.44-14.23-10.77-18.81-19.013l-1.75.972c4.76 8.557 11.29 15.16 19.59 19.787l.97-1.746zm-18.81-19.013c-4.57-8.23-6.87-17.791-6.87-28.714h-2c0 11.211 2.36 21.116 7.12 29.686l1.75-.972zm-6.87-28.714c0-10.923 2.3-20.484 6.87-28.714l-1.75-.972c-4.76 8.57-7.12 18.475-7.12 29.686h2zm6.87-28.714c4.58-8.243 10.85-14.573 18.81-19.013l-.97-1.746c-8.3 4.627-14.83 11.23-19.59 19.787l1.75.972zm18.81-19.01c8.11-4.446 17.14-6.676 27.12-6.676v-2c-10.29 0-19.66 2.303-28.08 6.923l.96 1.754zm27.12-6.676c13.5 0 23.94 4.25 31.45 12.666l1.49-1.332c-7.95-8.918-18.98-13.334-32.94-13.334v2zm33.2 12V10.6h-2v52.2h2zm-1-51.2h31.2v-2h-31.2v2zm-26.8 124.4c8.12 0 14.91-2.764 20.31-8.302l-1.43-1.396c-5 5.128-11.27 7.698-18.88 7.698v2zm20.32-8.311c5.41-5.689 8.08-13.221 8.08-22.489h-2c0 8.865-2.54 15.866-7.53 21.111l1.45 1.378zm8.08-22.489c0-9.267-2.67-16.739-8.09-22.298l-1.43 1.396c4.98 5.108 7.52 12.036 7.52 20.902h2zm-8.08-22.29c-5.39-5.674-12.19-8.51-20.32-8.51v2c7.6 0 13.87 2.63 18.87 7.89l1.45-1.38zm-20.32-8.51c-8.26 0-15.13 2.833-20.53 8.51l1.45 1.38c5-5.256 11.33-7.89 19.08-7.89v-2zm-20.52 8.502c-5.42 5.559-8.08 13.03-8.08 22.298h2c0-8.866 2.53-15.794 7.51-20.902l-1.43-1.396zm-8.08 22.298c0 9.268 2.66 16.8 8.07 22.489l1.45-1.378c-4.99-5.245-7.52-12.246-7.52-21.111h-2zm8.08 22.498c5.41 5.542 12.27 8.302 20.52 8.302v-2c-7.75 0-14.09-2.573-19.09-7.698l-1.43 1.396zM1410.25 65.6h-1v3.108l1.82-2.525-.82-.583zm15-11.8l-.38-.923-.01.003.39.92zm22-4h1v-1h-1v1zm0 28.8l-.07.997 1.07.083V78.6h-1zm-28 7.2l.7.716.01-.009-.71-.707zm-7.6 73.2v1h1v-1h-1zm-31.2 0h-1v1h1v-1zm0-107.6v-1h-1v1h1zm29.8 0h1v-1h-1v1zm.82 14.783c3.62-5.042 8.47-8.863 14.58-11.463l-.79-1.84c-6.42 2.733-11.57 6.778-15.42 12.137l1.63 1.166zm14.57-11.46c6.26-2.607 13.46-3.923 21.61-3.923v-2c-8.37 0-15.84 1.35-22.38 4.077l.77 1.846zm20.61-4.923v28.8h2V49.8h-2zm1.08 27.803c-3.46-.266-5.83-.403-7.08-.403v2c1.16 0 3.46.13 6.93.397l.15-1.994zm-7.08-.403c-9.12 0-16.4 2.595-21.7 7.893l1.41 1.414c4.84-4.835 11.56-7.307 20.29-7.307v-2zm-21.69 7.883c-5.33 5.189-7.91 12.96-7.91 23.117h2c0-9.844 2.5-17.005 7.3-21.684l-1.39-1.433zm-7.91 23.117V159h2v-50.8h-2zm1 49.8h-31.2v2h31.2v-2zm-30.2 1V51.4h-2V159h2zm-1-106.6h29.8v-2h-29.8v2zm28.8-1v14.2h2V51.4h-2zm56.56 0v-1h-1v1h1zm31.2 0h1v-1h-1v1zm0 107.6v1h1v-1h-1zm-31.2 0h-1v1h1v-1zm1.6-127.6l-.68.734.68-.734zm0-24.8l.68.734-.68-.734zm28-.2l-.67.747.67-.747zm0 25l.68.734v-.007l.01-.007-.69-.72zm-29.6 21h31.2v-2h-31.2v2zm30.2-1V159h2V51.4h-2zm1 106.6h-31.2v2h31.2v-2zm-30.2 1V51.4h-2V159h2zm14.6-123.6c-5.53 0-9.94-1.6-13.32-4.734l-1.36 1.468c3.81 3.533 8.74 5.266 14.68 5.266v-2zm-13.32-4.734c-3.4-3.143-5.08-7.01-5.08-11.666h-2c0 5.21 1.91 9.61 5.72 13.134l1.36-1.468zM1463.01 19c0-4.656 1.68-8.523 5.08-11.666l-1.36-1.468c-3.81 3.524-5.72 7.924-5.72 13.134h2zm5.08-11.666c3.38-3.134 7.79-4.734 13.32-4.734v-2c-5.94 0-10.87 1.733-14.68 5.266l1.36 1.468zm13.32-4.734c5.53 0 9.95 1.54 13.33 4.547l1.33-1.494C1492.25 2.26 1487.34.6 1481.41.6v2zm13.33 4.547c3.39 3.011 5.07 6.74 5.07 11.253h2c0-5.087-1.93-9.358-5.74-12.747l-1.33 1.494zm5.07 11.253c0 4.94-1.7 9.01-5.1 12.28l1.39 1.44c3.8-3.663 5.71-8.26 5.71-13.72h-2zm-5.08 12.266c-3.39 3.134-7.8 4.734-13.32 4.734v2c5.94 0 10.86-1.733 14.68-5.266l-1.36-1.468zM1623.56 61.8l-.7.713.01.006.69-.719zm12.4 97.2v1h1v-1h-1zm-31.2 0h-1v1h1v-1zm-5.6-75.8l-.75.659.01.005v.006l.74-.67zm-35 1l.72.697.01-.01-.73-.687zm-7 74.8v1h1v-1h-1zm-31.2 0h-1v1h1v-1zm0-107.6v-1h-1v1h1zm29.8 0h1v-1h-1v1zm0 12.6h-1v2.581l1.74-1.907-.74-.674zm15.4-10.4l.37.931.01-.003v-.004l-.38-.924zm20.2-2.8c13.12 0 23.59 3.928 31.5 11.713l1.4-1.426c-8.35-8.215-19.35-12.287-32.9-12.287v2zm31.51 11.719c8.01 7.75 12.09 19.316 12.09 34.881h2c0-15.902-4.18-28.07-12.7-36.319l-1.39 1.438zm12.09 34.881V159h2V97.4h-2zm1 60.6h-31.2v2h31.2v-2zm-30.2 1v-56.8h-2V159h2zm0-56.8c0-8.654-1.89-15.277-5.86-19.67l-1.48 1.34c3.5 3.873 5.34 9.917 5.34 18.33h2zm-5.84-19.659c-3.97-4.535-9.68-6.741-16.96-6.741v2c6.86 0 11.95 2.06 15.45 6.059l1.51-1.317zm-16.96-6.741c-8.09 0-14.64 2.548-19.52 7.713l1.45 1.374c4.45-4.701 10.43-7.087 18.07-7.087v-2zm-19.51 7.703c-4.92 5.054-7.29 12.55-7.29 22.297h2c0-9.453 2.3-16.357 6.72-20.903l-1.43-1.394zm-7.29 22.297V159h2v-53.2h-2zm1 52.2h-31.2v2h31.2v-2zm-30.2 1V51.4h-2V159h2zm-1-106.6h29.8v-2h-29.8v2zm28.8-1V64h2V51.4h-2zm1.74 13.274c4.02-4.412 9.03-7.795 15.03-10.143l-.73-1.862c-6.27 2.452-11.53 6.002-15.78 10.657l1.48 1.348zm15.04-10.15c6-2.478 12.61-3.724 19.82-3.724v-2c-7.45 0-14.31 1.287-20.58 3.876l.76 1.848zm138.9 62.276l.78-.627-.69-.862-.79.777.7.712zm-15 14.8l-.7-.712-.3.294v.418h1zm0 27.4v1h1v-1h-1zm-31.2 0h-1v1h1v-1zm0-148.4v-1h-1v1h1zm31.2 0h1v-1h-1v1zm0 84h-1v2.325l1.69-1.6-.69-.725zm45.6-43.2v-1h-.39l-.29.274.68.726zm37.2 0l.72.7 1.67-1.7h-2.39v1zm-44.8 45.6l-.71-.7-.62.627.55.691.78-.618zm48.8 62v1h2.06l-1.27-1.618-.79.618zm-37.8 0l-.77.627.3.373h.47v-1zm-34.7-42.912l-15 14.8 1.41 1.424 15-14.8-1.41-1.424zm-15.3 15.512V159h2v-27.4h-2zm1 26.4h-31.2v2h31.2v-2zm-30.2 1V10.6h-2V159h2zm-1-147.4h31.2v-2h-31.2v2zm30.2-1v84h2v-84h-2zm1.69 84.726l45.6-43.2-1.37-1.452-45.6 43.2 1.37 1.452zm44.91-42.926h37.2v-2h-37.2v2zm36.49-1.7l-44.8 45.6 1.43 1.4 44.8-45.6-1.43-1.4zm-44.87 46.918l48.8 62 1.57-1.236-48.8-62-1.57 1.236zM1782.24 158h-37.8v2h37.8v-2zm-37.02.373l-34-42.2-1.55 1.254 34 42.2 1.55-1.254zM1792.28 19v-1h-1.08l.08 1.068 1-.068zm37.19 0l1 .068.08-1.068h-1.08v1zm-6.19 91.4v1h.93l.06-.932-.99-.068zm-24.81 0l-.99.068.06.932h.93v-1zm-1.4 45l-.7.707.01.013.01.013.68-.733zm0-25.6l.68.734.01-.007.01-.007-.7-.72zm27.61 0l-.7.72.01.007.01.007.68-.734zm-.21 25.6l.7.72-.7-.72zM1792.28 20h37.19v-2h-37.19v2zm36.2-1.068l-6.2 91.4 1.99.136 6.2-91.4-1.99-.136zm-5.2 90.468h-24.81v2h24.81v-2zm-23.81.932l-6.2-91.4-1.99.136 6.2 91.4 1.99-.136zm11.41 49.268c-5.24 0-9.59-1.651-13.12-4.933l-1.37 1.466c3.94 3.651 8.79 5.467 14.49 5.467v-2zm-13.1-4.907c-3.41-3.414-5.1-7.493-5.1-12.293h-2c0 5.333 1.9 9.921 5.69 13.707l1.41-1.414zm-5.1-12.293c0-4.798 1.69-8.729 5.07-11.866l-1.35-1.468c-3.82 3.53-5.72 7.999-5.72 13.334h2zm5.09-11.88c3.39-3.265 7.73-4.92 13.11-4.92v-2c-5.83 0-10.69 1.811-14.5 5.48l1.39 1.44zm13.11-4.92c5.37 0 9.71 1.655 13.1 4.92l1.39-1.44c-3.81-3.669-8.67-5.48-14.49-5.48v2zm13.12 4.934c3.38 3.137 5.07 7.068 5.07 11.866h2c0-5.335-1.9-9.804-5.72-13.334l-1.35 1.468zm5.07 11.866c0 4.788-1.75 8.864-5.29 12.28l1.39 1.44c3.92-3.784 5.9-8.375 5.9-13.72h-2zm-5.29 12.28c-3.39 3.269-7.67 4.92-12.9 4.92v2c5.69 0 10.48-1.816 14.29-5.48l-1.39-1.44z"/>
</svg>
