<svg xmlns="http://www.w3.org/2000/svg" width="250" height="251" fill="none" viewBox="0 0 250 251">
    <g fill="#fff" clip-path="url(#clip0)">
        <path d="M73.789 161.167c.166.333.5.5.832.5h.334l17.986-5.834c.5-.166.666-.666.5-1l-5.83-18c0-.166-.166-.333-.333-.5-.166-.166-.5-.166-.666 0l-17.986 5.834c-.167 0-.333.166-.5.333-.166.167-.166.5 0 .667l5.663 18zM86.279 138l5.33 16.5-16.488 5.333-5.33-16.5L86.28 138zM57.968 153.5c0 1.667 1.332 3.167 3.164 3.167s3.164-1.334 3.164-3.167c0-1.667-1.332-3.167-3.164-3.167s-3.164 1.5-3.164 3.167zm3.164-1.5c.833 0 1.499.667 1.499 1.5s-.666 1.5-1.499 1.5c-.833 0-1.499-.667-1.499-1.5s.666-1.5 1.499-1.5zM57.468 141.333c1.665 0 3.164-1.333 3.164-3.166 0-1.834-1.332-3.167-3.164-3.167s-3.164 1.333-3.164 3.167c0 1.833 1.332 3.166 3.164 3.166zm0-4.666c.833 0 1.499.666 1.499 1.5 0 .833-.833 1.5-1.499 1.5-.833 0-1.499-.667-1.499-1.5 0-.834.666-1.5 1.499-1.5zM149.898 168.5c-1.832 0-3.165 1.5-3.165 3.167 0 1.666 1.499 3.166 3.165 3.166 1.832 0 3.164-1.5 3.164-3.166 0-1.667-1.499-3.167-3.164-3.167zm0 4.667c-.833 0-1.499-.667-1.499-1.5 0-.834.666-1.5 1.499-1.5.832 0 1.499.666 1.499 1.5 0 .833-.667 1.5-1.499 1.5zM119.588 168.833c-1.832 0-3.165 1.5-3.165 3.167 0 1.667 1.499 3.167 3.165 3.167 1.832 0 3.164-1.5 3.164-3.167 0-1.667-1.499-3.167-3.164-3.167zm0 4.834c-.833 0-1.499-.667-1.499-1.5 0-.834.666-1.5 1.499-1.5.832 0 1.498.666 1.498 1.5 0 .833-.666 1.5-1.498 1.5zM206.022 103c0-1.667-1.333-3-2.998-3-1.665 0-2.998 1.333-2.998 3s1.333 3 2.998 3c1.499.167 2.998-1.167 2.998-3zm-4.497 0c0-.833.666-1.333 1.333-1.333.666 0 1.332.666 1.332 1.333 0 .833-.666 1.333-1.332 1.333-.667 0-1.333-.5-1.333-1.333zM180.041 105c0-1.667-1.332-3-2.997-3-1.666 0-2.998 1.333-2.998 3s1.332 3 2.998 3c1.665 0 2.997-1.333 2.997-3zm-4.496 0c0-.833.666-1.333 1.332-1.333s1.332.666 1.332 1.333c0 .833-.666 1.333-1.332 1.333s-1.332-.666-1.332-1.333zM186.87 187.667c-3.498.333-5.996-.667-6.162-.667-.5-.167-.833 0-1 .5-.166.5 0 .833.5 1 .167 0 2.165.833 5.329.833h1.499c.5 0 .833-.5.833-.833-.167-.5-.5-.833-.999-.833z"/>
        <path d="M211.517 163.333c.5 0 .833-.333.833-.833 0-.5-.333-.833-.833-.833h-19.984v-30.834l36.805-39.166c.167-.167.167-.334.167-.5 0-.167-.167-.5-.334-.667-3.164-3-29.144-3.333-37.471-3.333-2.332 0-6.329 0-10.659.166l-5.495-8.833c-.167-.333-.833-.5-1.166-.333-.333.166-.5.833-.333 1.166l4.996 8c-10.492.334-22.816 1.167-24.981 3.167-.167.167-.333.333-.333.667 0 .166 0 .333.166.5l11.325 12c.167.166.333.333.666.333.167 0 .333 0 .5-.167.333-.333.333-.833 0-1.166L156.559 93c5.996 1.333 17.654 1.667 26.147 1.833l2.831 4.667c-1.665 1.5-1.998 4.167-.666 6.5.666 1.167 1.832 2.167 2.998 2.667.499.166 1.166.333 1.665.333.5 0 .999-.167 1.499-.333l3.664 5.833c.166.333.5.333.666.333.167 0 .333 0 .5-.166.333-.167.499-.834.333-1.167l-3.664-5.833c1.665-1.5 1.998-4.167.666-6.5C192.532 100 191.366 99 190.2 98.5c-1.165-.333-2.165-.333-3.164 0l-2.331-3.833h5.828c6.829 0 25.814-.167 33.975-2l-33.975 36.166-20.984-22c-.333-.333-.832-.333-1.165 0-.333.334-.333.834 0 1.167l21.317 22.833v30.834H164.72l2.498-21v-.334c0-1.166-1.166-2.5-9.493-3.5-5.662-.666-13.323-1.166-21.317-1.166-7.827 0-15.155.333-20.818 1l-6.661-10.5c3.497-2.834 5.829-7.334 5.829-12.167 0-8.667-6.995-15.667-15.655-15.667-7.494 0-13.656 5.167-15.322 12.167-3.497-.167-7.16-.333-10.991-.333-6.995 0-13.657.333-18.653 1-7.328 1-8.327 2.333-8.327 3.333v47H16.5c-.5 0-.834.333-.834.833 0 .5.334.834.833.834H45.81v17.5c0 5 25.98 5.166 27.146 5.166 1.166 0 27.146 0 27.146-5.166v-17.334h7.828l2.664 24.834v.5L112.26 204c.499 3.667 19.984 3.833 23.981 3.833s23.316-.166 23.982-3.833l1.666-15.167c.166-.166.166-.333.166-.5v-.833l2.665-24.333H189.867v13l-20.318 12.666c-.166.167-.333.5-.333.667 0 4 19.319 4.167 21.484 4.167 2.165 0 21.484 0 21.484-4 0-.334-.167-.5-.333-.667l-20.318-12.667v-13h19.984zm-22.982-56.166c-.833-.334-1.665-1-2.165-1.834-.833-1.5-.666-3.166.166-4.166l3.831 6.166c-.5 0-1.166 0-1.832-.166zm.166-7c.334 0 .667 0 1 .166.832.334 1.665 1 2.165 1.834.832 1.5.666 3.166-.167 4.166l-3.83-6.166h.832zM155.06 91c2.499-.833 10.992-1.833 24.149-2.167l2.664 4.334C167.051 93 157.559 92 155.06 91zm28.645 2.333l-2.664-4.5c2.997 0 6.162-.166 9.659-.166 19.818 0 32.475 1.166 35.64 2.333-3.165 1-15.822 2.333-35.64 2.333h-6.995zm-47.464 44c16.821 0 27.479 1.667 29.145 2.834-1.666 1.166-12.324 2.833-29.145 2.833-6.828 0-12.657-.333-17.32-.667l-2.498-4.166c4.996-.334 11.658-.834 19.818-.834zm-19.318 5c-5.496-.5-8.993-1.333-9.826-2 .666-.5 3.331-1.166 7.494-1.666l2.332 3.666zM99.103 100c7.661 0 13.989 6.333 13.989 14 0 7.5-5.829 13.5-13.156 14v-1.167c3.164-.166 5.995-1.5 8.16-3.666 2.332-2.334 3.664-5.5 3.664-9s-1.499-6.667-3.664-9c-2.331-2.334-5.496-3.667-8.993-3.667s-6.662 1.5-8.993 3.667c-2.332 2.333-3.664 5.5-3.664 9 0 1 .166 1.833.333 2.666-.333 0-.833 0-1.166.167-.166-1-.333-1.833-.333-2.833C85.114 106.333 91.442 100 99.103 100zm-51.627 16.333c1.165.5 3.33 1 6.661 1.5 1.666.167 3.498.334 5.496.5l-1.499 3c-4.663.5-8.493 1.5-8.493 3.167 0 1.333 2.331 2.167 5.662 2.667L53.971 130c-.167.333 0 .833.333 1.167L71.29 139.5h.333c.333 0 .666-.167.833-.5l5.162-10.667c6.995-.166 18.153-1 18.153-3.833 0-2.5-8.493-3.333-15.488-3.667l-3.997-2c5.662-.166 10.992-.5 14.989-1 3.497-.5 5.495-1 6.661-1.5V168c-.5 1.167-9.326 3.5-25.48 3.5-16.155 0-24.981-2.167-25.481-3.5v-51.667h.5zM72.79 119l3.664 1.833H72.79c-1.832 0-7.495 0-12.657.5l1.332-2.666c3.497.166 7.328.333 11.325.333zm-10.659-2l1.166-2.5 5.829 2.833c-2.498-.166-4.83-.166-6.995-.333zm31.976 7.5c-1.332.833-6.828 1.833-15.488 2.167l1.998-4.167c7.494.5 12.324 1.333 13.49 2zm-17.32 2.167h-3.83c-6.163 0-11.325-.334-14.99-.834l1.5-3c3.497-.333 8.16-.666 13.49-.666 2.164 0 3.996 0 5.995.166l-2.165 4.334zm-19.652.833c5.829.833 13.49.833 15.821.833h2.998l-4.497 9.167L55.97 130l1.166-2.5zm-1-1.833c-2.33-.334-3.83-.834-4.496-1.167.666-.5 2.665-1 5.662-1.333l-1.165 2.5zm50.296-20l-6.495 6.5V103c2.498.167 4.663 1 6.495 2.667zm3.83 7.5h-9.16l6.496-6.5c1.498 1.833 2.498 4.166 2.664 6.5zM99.936 116l6.495 6.5c-1.832 1.5-3.997 2.5-6.495 2.667V116zm7.661 5.333l-6.496-6.5h9.16c-.166 2.5-1.166 4.667-2.664 6.5zM98.27 112l-6.495-6.5c1.832-1.5 3.997-2.5 6.495-2.667V112zm-7.66-5.167l6.495 6.5h-9.16c.166-2.5 1.166-4.833 2.665-6.5zm-2.665 8h9.493c-1.333.667-4.663 1.167-9.327 1.667 0-.5 0-1-.166-1.667zm-15.155-3c3.664 0 7.328.167 10.658.334 0 .666-.166 1.333-.166 2 0 1 .166 2 .333 2.833-3.164.167-6.662.333-10.659.333l-9.66-4.666c-.332-.167-.832 0-1.165.333l-1.832 3.833c-7.328-.5-11.99-1.5-12.823-2.333 1.498-1.167 10.825-2.667 25.314-2.667zm0 72.334c-16.155 0-24.981-2.167-25.48-3.5V170c5.828 3 24.48 3.167 25.48 3.167.999 0 19.651 0 25.48-3.167v10.667c-.5 1.333-9.326 3.5-25.48 3.5zm27.146-22.5v-32c2.831-.167 5.496-1 7.661-2.5l5.995 9.833c-7.328 1-8.327 2.167-8.327 3.333v.334l2.332 21h-7.661zM126.915 206c-7.661-.5-12.324-1.5-12.99-2.167L112.26 188c.166-3.667 2.498-6 6.162-6 3.997 0 8.66 2.833 8.66 6.333V206h-.167zm1.666 0v-17.667c0-3.5 3.497-6.333 7.66-6.333 4.164 0 7.661 2.833 7.661 6.333V206c-2.331.167-4.996.167-7.827.167-2.665.166-5.163 0-7.494-.167zm29.977-2.167c-.666.667-5.33 1.667-12.824 2.167v-17.667c0-3.5 4.663-6.333 8.494-6.333 3.497 0 5.662 2.167 6.162 5.333l-1.832 16.5zm-4.33-23.5c-3.664 0-7.661 2-9.327 4.834-1.498-2.834-4.829-4.834-8.66-4.834-3.83 0-7.161 2-8.66 4.834-1.665-2.834-5.662-4.834-9.326-4.834-2.998 0-5.329 1.334-6.662 3.334L107.097 142c1.332.5 3.664 1.167 7.661 1.667.999.166 1.998.166 3.164.333l6.495 10.5c-11.491.833-12.157 3-12.157 3.667 0 2 5.662 3 11.657 3.5-.166 1.666.167 3.333 1 5 .999 1.833 2.498 3 4.33 3.666.832.334 1.499.334 2.331.334.833 0 1.666-.167 2.498-.5l5.496 9c.167.333.5.333.666.333.167 0 .333 0 .5-.167.333-.166.5-.833.333-1.166l-5.496-8.834c1.999-1.666 2.665-4.333 1.999-7.166 21.483-.167 22.649-3.334 22.649-4 0-3.834-19.985-4-23.982-4-3.83 0-7.161.166-9.825.333l-6.329-10.333c4.83.333 10.326.5 16.154.5 8.161 0 15.655-.334 21.318-1.167 3.996-.5 6.328-1 7.66-1.667l-4.663 41.5c-1.166-1.833-3.497-3-6.328-3zm-19.652-12.5L131.079 162h4.829c.666 2.333.167 4.5-1.332 5.833zm-8.993-6c1.166 0 2.331.167 3.497.167l4.164 6.667c-1 .333-2.165.5-3.331 0-1.499-.5-2.665-1.5-3.497-3-.667-1.167-1-2.5-.833-3.834zm2.498-1.5c-.666 0-1.332 0-1.999-.166.334-.5.5-1 1-1.5l.999 1.666zm.5-2.5c.499-.166.999-.333 1.665-.333 1.832 0 3.83 1.167 4.996 3-1.832 0-3.497 0-4.996-.167l-1.665-2.5zm8.16 2.167c-1.332-2.167-3.331-3.667-5.662-4h5.162c12.491 0 20.651 1.333 22.15 2.333-1.499 1-9.493 2.334-21.483 2.334 0-.334 0-.5-.167-.667zm-9.16-3.5l-.166-.333h1.332c-.333 0-.833.166-1.166.333zm-1.332.833c-.833.667-1.499 1.667-1.832 2.667-5.662-.5-9.16-1.167-10.159-1.833.999-.667 4.996-1.5 11.325-2l.666 1.166zM190.7 192c-10.825 0-17.82-1.333-19.485-2.167l19.485-12.166 19.485 12.166c-1.832 1-8.993 2.167-19.485 2.167zM233.834 161.667h-13.657c-.499 0-.832.333-.832.833 0 .5.333.833.832.833h13.657c.499 0 .832-.333.832-.833 0-.5-.499-.833-.832-.833z"/>
    </g>
    <defs>
        <clipPath id="clip0">
            <path fill="#fff" d="M0 0H219V130H0z" transform="translate(15.666 78)"/>
        </clipPath>
    </defs>
</svg>
