<svg xmlns="http://www.w3.org/2000/svg" width="28" height="27" fill="none" viewBox="0 0 28 27">
    <path fill="#fff" d="M27.704 12.47c.063-.336.095-.619.11-.841.024-.366-.004-.91-.014-1.08C27.463 4.676 21.372 0 13.909 0 6.227 0 0 4.953 0 11.062c0 5.616 5.26 10.254 12.075 10.967.417.044.718.42.671.836l-.29 2.612c-.066.593.547 1.024 1.085.765 5.758-2.78 9.2-5.638 11.257-8.115.374-.45 1.594-2.16 1.843-2.608.527-.954.891-1.977 1.063-3.048z"/>
    <path fill="#000" d="M6.26 13.303v-4.66c0-.392-.318-.71-.711-.71-.393 0-.712.318-.712.71v5.371c0 .393.319.712.712.712h2.845c.393 0 .712-.319.712-.712 0-.392-.319-.71-.712-.71H6.26zM10.649 14.726h-.311c-.307 0-.556-.249-.556-.556V8.488c0-.307.249-.556.556-.556h.31c.308 0 .557.249.557.556v5.682c0 .307-.25.556-.556.556zM16.398 8.644v3.28S13.556 8.22 13.513 8.17c-.136-.152-.336-.246-.558-.237-.387.014-.684.353-.684.74v5.341c0 .393.319.712.712.712.393 0 .711-.319.711-.712v-3.26s2.885 3.737 2.927 3.777c.126.12.295.193.481.195.395.003.718-.346.718-.741V8.644c0-.393-.318-.712-.711-.712-.393 0-.712.319-.712.712zM23.156 8.644c0-.393-.319-.712-.712-.712H19.6c-.393 0-.712.319-.712.712v5.37c0 .393.319.712.712.712h2.845c.393 0 .712-.319.712-.712 0-.392-.319-.71-.712-.71H20.31V12.04h2.134c.393 0 .712-.318.712-.711 0-.393-.319-.712-.712-.712H20.31V9.355h2.134c.393 0 .712-.319.712-.711z"/>
</svg>
