<svg xmlns="http://www.w3.org/2000/svg" width="174" height="21" fill="none" viewBox="0 0 174 21">
    <path fill="#fff" d="M16.232 15.8h-9.1L5.396 20H.748L9.484.4h4.48L22.728 20h-4.76l-1.736-4.2zm-1.428-3.444l-3.108-7.504-3.108 7.504h6.216zM24.762.4h4.535v15.904h9.829V20H24.762V.4zm25.95 19.936c-1.998 0-3.808-.43-5.432-1.288-1.605-.877-2.875-2.081-3.808-3.612-.915-1.55-1.372-3.295-1.372-5.236 0-1.941.457-3.677 1.372-5.208.933-1.55 2.203-2.753 3.808-3.612C46.904.503 48.724.064 50.74.064c1.698 0 3.23.299 4.592.896 1.381.597 2.538 1.456 3.472 2.576l-2.912 2.688c-1.326-1.53-2.968-2.296-4.928-2.296-1.213 0-2.296.27-3.248.812-.952.523-1.699 1.26-2.24 2.212-.523.952-.784 2.035-.784 3.248s.261 2.296.784 3.248c.541.952 1.288 1.699 2.24 2.24.952.523 2.035.784 3.248.784 1.96 0 3.602-.775 4.928-2.324l2.912 2.688c-.934 1.139-2.09 2.007-3.472 2.604-1.382.597-2.922.896-4.62.896zm20.237 0c-2.035 0-3.873-.439-5.516-1.316-1.624-.877-2.903-2.081-3.836-3.612-.915-1.55-1.372-3.285-1.372-5.208s.457-3.65 1.372-5.18c.933-1.55 2.212-2.763 3.836-3.64C67.075.503 68.914.064 70.949.064s3.864.439 5.488 1.316c1.624.877 2.903 2.09 3.836 3.64.933 1.53 1.4 3.257 1.4 5.18 0 1.923-.467 3.659-1.4 5.208-.933 1.53-2.212 2.735-3.836 3.612-1.624.877-3.453 1.316-5.488 1.316zm0-3.864c1.157 0 2.203-.261 3.136-.784.933-.541 1.661-1.288 2.184-2.24.541-.952.812-2.035.812-3.248s-.27-2.296-.812-3.248c-.523-.952-1.25-1.69-2.184-2.212-.933-.541-1.979-.812-3.136-.812s-2.203.27-3.136.812c-.934.523-1.67 1.26-2.212 2.212-.523.952-.784 2.035-.784 3.248s.261 2.296.784 3.248c.541.952 1.278 1.699 2.212 2.24.933.523 1.978.784 3.136.784zM103.058.4V20h-4.536v-8.036h-8.904V20h-4.536V.4h4.536v7.728h8.904V.4h4.536zm14.129 19.936c-2.035 0-3.873-.439-5.516-1.316-1.624-.877-2.903-2.081-3.836-3.612-.915-1.55-1.372-3.285-1.372-5.208s.457-3.65 1.372-5.18c.933-1.55 2.212-2.763 3.836-3.64 1.643-.877 3.481-1.316 5.516-1.316s3.864.439 5.488 1.316c1.624.877 2.903 2.09 3.836 3.64.933 1.53 1.4 3.257 1.4 5.18 0 1.923-.467 3.659-1.4 5.208-.933 1.53-2.212 2.735-3.836 3.612-1.624.877-3.453 1.316-5.488 1.316zm0-3.864c1.157 0 2.203-.261 3.136-.784.933-.541 1.661-1.288 2.184-2.24.541-.952.812-2.035.812-3.248s-.271-2.296-.812-3.248c-.523-.952-1.251-1.69-2.184-2.212-.933-.541-1.979-.812-3.136-.812s-2.203.27-3.136.812c-.933.523-1.671 1.26-2.212 2.212-.523.952-.784 2.035-.784 3.248s.261 2.296.784 3.248c.541.952 1.279 1.699 2.212 2.24.933.523 1.979.784 3.136.784zM149.156 20l-.028-11.76-5.768 9.688h-2.044l-5.74-9.436V20h-4.256V.4h3.752l7.336 12.18L149.632.4h3.724l.056 19.6h-4.256zm24.082-3.64V20h-15.176V.4h14.812v3.64H162.57v4.256h9.1v3.528h-9.1v4.536h10.668z"/>
</svg>
